<svg width="42" height="42" viewBox="0 0 42 42" fill="none" xmlns="http://www.w3.org/2000/svg">
<path d="M12.35 33H6C4.34315 33 3 34.3431 3 36C3 37.6569 4.34315 39 6 39H36C37.6569 39 39 37.6569 39 36C39 34.3431 37.6568 33 36 33H29.2C28.6477 33 28.2 33.4477 28.2 34C28.2 34.5523 27.7523 35 27.2 35H14.35C13.7977 35 13.35 34.5523 13.35 34C13.35 33.4477 12.9023 33 12.35 33Z" fill="#2463EC"/>
<path d="M9 9H33" stroke="#2463EC" stroke-width="2" stroke-miterlimit="10" stroke-linecap="round" stroke-linejoin="round"/>
<path d="M9 17H33" stroke="#2463EC" stroke-width="2" stroke-miterlimit="10" stroke-linecap="round" stroke-linejoin="round"/>
<path d="M1 25H13V31H29V25H41" stroke="#2463EC" stroke-width="2" stroke-miterlimit="10" stroke-linecap="round" stroke-linejoin="round"/>
<path d="M37 1H5C2.79086 1 1 2.79086 1 5V37C1 39.2091 2.79086 41 5 41H37C39.2091 41 41 39.2091 41 37V5C41 2.79086 39.2091 1 37 1Z" stroke="#2463EC" stroke-width="2" stroke-miterlimit="10" stroke-linecap="round" stroke-linejoin="round"/>
</svg>
