<svg width="29" height="29" viewBox="0 0 29 29" fill="none" xmlns="http://www.w3.org/2000/svg">
<path d="M27.8021 28.2106C27.3737 28.626 26.7978 28.8542 26.2011 28.845C25.6045 28.8359 25.0359 28.59 24.6205 28.1616L14.7007 17.9313L4.47034 27.8511C4.04193 28.2665 3.46605 28.4947 2.86938 28.4855C2.27272 28.4764 1.70414 28.2305 1.28874 27.8021C0.873329 27.3737 0.645122 26.7978 0.654317 26.2011C0.663509 25.6045 0.909351 25.0359 1.33776 24.6205L11.5681 14.7007L1.64824 4.47035C1.23283 4.04194 1.00463 3.46606 1.01382 2.86939C1.02301 2.27273 1.26885 1.70415 1.69726 1.28874C2.12567 0.873338 2.70155 0.645131 3.29822 0.654324C3.89488 0.663518 4.46346 0.909359 4.87886 1.33777L14.7987 11.5681L25.029 1.64825C25.4574 1.23284 26.0333 1.00463 26.63 1.01383C27.2266 1.02302 27.7952 1.26886 28.2106 1.69727C28.626 2.12568 28.8542 2.70156 28.845 3.29822C28.8358 3.89489 28.59 4.46347 28.1616 4.87887L17.9313 14.7987L27.8511 25.029C28.2665 25.4574 28.4947 26.0333 28.4855 26.63C28.4763 27.2266 28.2305 27.7952 27.8021 28.2106Z" fill="white"/>
</svg>
