<svg width="18" height="7" viewBox="0 0 18 7" fill="none" xmlns="http://www.w3.org/2000/svg">
<path d="M2.79555 6.52919C4.36533 6.52919 5.29779 5.29955 5.29779 3.21729C5.29779 2.43322 5.14809 1.77341 4.8615 1.26356C4.4466 0.470929 3.73229 0.0424805 2.82977 0.0424805C1.48668 0.0424805 0.537109 0.946507 0.537109 2.21472C0.537109 3.4058 1.39258 4.27127 2.56885 4.27127C3.29172 4.27127 3.87771 3.9328 4.16857 3.34582H4.18141C4.18141 3.34582 4.19852 3.34582 4.20279 3.34582C4.21135 3.34582 4.24129 3.34582 4.24129 3.34582C4.24129 4.7597 3.70662 5.60375 2.8041 5.60375C2.27371 5.60375 1.86309 5.3124 1.72193 4.84539H0.622656C0.806582 5.86081 1.66633 6.52919 2.79555 6.52919ZM2.83404 3.39295C2.124 3.39295 1.61928 2.88738 1.61928 2.18044C1.61928 1.49064 2.14967 0.963645 2.83832 0.963645C3.52697 0.963645 4.05736 1.49921 4.05736 2.19758C4.05736 2.88738 3.5398 3.39295 2.83404 3.39295Z" fill="white"/>
<path d="M7.103 6.46921C7.50935 6.46921 7.78738 6.17787 7.78738 5.79226C7.78738 5.40237 7.50935 5.11531 7.103 5.11531C6.70093 5.11531 6.41863 5.40237 6.41863 5.79226C6.41863 6.17787 6.70093 6.46921 7.103 6.46921ZM7.103 3.25585C7.50935 3.25585 7.78738 2.96879 7.78738 2.58318C7.78738 2.19329 7.50935 1.90623 7.103 1.90623C6.70093 1.90623 6.41863 2.19329 6.41863 2.58318C6.41863 2.96879 6.70093 3.25585 7.103 3.25585Z" fill="white"/>
<path d="M11.7911 6.37924H12.8476V5.22671H13.6817V4.29269H12.8476V0.196722H11.2907C10.2 1.84197 9.33167 3.21729 8.77562 4.24128V5.22671H11.7911V6.37924ZM9.7979 4.25413C10.5165 2.98592 11.1581 1.9705 11.7484 1.09646H11.8083V4.3184H9.7979V4.25413Z" fill="white"/>
<path d="M16.0344 6.37924H17.138V0.196722H16.0387L14.4262 1.32783V2.39038L15.9617 1.31069H16.0344V6.37924Z" fill="white"/>
</svg>
