<svg width="18" height="7" viewBox="0 0 18 7" fill="none" xmlns="http://www.w3.org/2000/svg">
<path d="M2.79555 6.59899C4.36533 6.59899 5.29779 5.36416 5.29779 3.27313C5.29779 2.48577 5.14809 1.82318 4.8615 1.31118C4.4466 0.515214 3.73229 0.0849609 2.82977 0.0849609C1.48668 0.0849609 0.537109 0.992794 0.537109 2.26634C0.537109 3.46245 1.39258 4.33156 2.56885 4.33156C3.29172 4.33156 3.87771 3.99166 4.16857 3.40221H4.18141C4.18141 3.40221 4.19852 3.40221 4.20279 3.40221C4.21135 3.40221 4.24129 3.40221 4.24129 3.40221C4.24129 4.82204 3.70662 5.66964 2.8041 5.66964C2.27371 5.66964 1.86309 5.37707 1.72193 4.90809H0.622656C0.806582 5.92779 1.66633 6.59899 2.79555 6.59899ZM2.83404 3.44954C2.124 3.44954 1.61928 2.94184 1.61928 2.23192C1.61928 1.53922 2.14967 1.01 2.83832 1.01C3.52697 1.01 4.05736 1.54782 4.05736 2.24913C4.05736 2.94184 3.5398 3.44954 2.83404 3.44954Z" fill="white"/>
<path d="M7.103 6.53875C7.50935 6.53875 7.78738 6.24618 7.78738 5.85895C7.78738 5.46742 7.50935 5.17915 7.103 5.17915C6.70093 5.17915 6.41863 5.46742 6.41863 5.85895C6.41863 6.24618 6.70093 6.53875 7.103 6.53875ZM7.103 3.31186C7.50935 3.31186 7.78738 3.02359 7.78738 2.63636C7.78738 2.24483 7.50935 1.95656 7.103 1.95656C6.70093 1.95656 6.41863 2.24483 6.41863 2.63636C6.41863 3.02359 6.70093 3.31186 7.103 3.31186Z" fill="white"/>
<path d="M11.7911 6.4484H12.8476V5.29102H13.6817V4.35307H12.8476V0.239852H11.2907C10.2 1.89202 9.33167 3.27313 8.77562 4.30144V5.29102H11.7911V6.4484ZM9.7979 4.31435C10.5165 3.0408 11.1581 2.0211 11.7484 1.14338H11.8083V4.37888H9.7979V4.31435Z" fill="white"/>
<path d="M16.0344 6.4484H17.138V0.239852H16.0387L14.4262 1.37572V2.44275L15.9617 1.35851H16.0344V6.4484Z" fill="white"/>
</svg>
