<svg width="120" height="50" viewBox="0 0 120 50" fill="none" xmlns="http://www.w3.org/2000/svg">
<g clip-path="url(#clip0_3_647)">
<path d="M102.488 21.8392C100.501 22.2978 95.2532 22.5525 95.2532 22.5525L94.6079 24.6243C94.6079 24.6243 97.2062 24.4036 99.1082 24.5904C99.1082 24.5904 99.7196 24.5394 99.7875 25.2697C99.8215 26.0169 99.7366 26.7981 99.7366 26.7981C99.7366 26.7981 99.6856 27.2566 99.0573 27.3755C98.327 27.4944 93.4021 27.7151 93.4021 27.7151L92.604 30.3984C92.604 30.3984 92.3153 31.0097 92.9776 30.8399C93.5889 30.6701 98.7516 29.6851 99.4309 29.821C100.144 29.9908 100.959 30.9758 100.722 31.8588C100.45 32.9287 95.2872 36.2233 92.1624 36.0025C92.1624 36.0025 90.5151 36.1044 89.1395 33.8797C87.8149 31.7569 89.5981 27.7661 89.5981 27.7661C89.5981 27.7661 88.7999 25.898 89.3943 25.2187C89.3943 25.2187 89.7339 24.93 90.7529 24.8451L92.0266 22.2298C92.0266 22.2298 90.5831 22.3147 89.7339 21.2618C88.9527 20.2429 88.8848 19.8013 89.4962 19.5296C90.1415 19.19 96.1193 18.1201 100.229 18.2559C100.229 18.2559 101.673 18.0861 102.946 20.5825C102.946 20.5825 103.524 21.6015 102.505 21.8392M86.9998 31.8928C86.4903 33.1325 85.0808 34.4402 83.3825 33.642C81.6503 32.8268 78.9162 27.2566 78.9162 27.2566C78.9162 27.2566 77.8972 25.1848 77.6934 25.2527C77.6934 25.2527 77.4727 24.8451 77.3538 27.1208C77.184 29.3794 77.3877 33.7779 76.4537 34.4741C75.6046 35.1534 74.5856 34.8647 74.0082 34.0666C73.5327 33.2684 73.3289 31.3494 73.6007 28.0038C73.9063 24.6583 74.6706 21.092 75.6386 19.9881C76.6575 18.8673 77.4727 19.6825 77.7783 19.9881C77.7783 19.9881 79.086 21.1769 81.2937 24.6923L81.6673 25.3376C81.6673 25.3376 83.6712 28.6831 83.875 28.6662C83.875 28.6662 84.0448 28.836 84.1807 28.7001C84.3845 28.6492 84.3166 27.5623 84.3166 27.5623C84.3166 27.5623 83.9429 23.945 82.0749 17.8314C82.0749 17.8314 81.8032 17.0502 81.99 16.303C82.1598 15.6237 82.89 15.9633 82.89 15.9633C82.89 15.9633 85.7091 17.3219 87.0847 21.9072C88.4433 26.4924 87.5262 30.6531 87.0168 31.8928M73.1761 20.124C72.9044 20.5995 72.7855 21.2618 71.6137 21.4486C71.6137 21.4486 60.2355 22.2468 59.6751 23.045C59.6751 23.045 59.3015 23.5205 59.9129 23.6394C60.5582 23.7752 63.1395 24.1149 64.3622 24.1828C65.6869 24.1828 70.1363 24.2168 71.7666 26.2207C71.7666 26.2207 72.7006 27.1717 72.6666 29.3285C72.6327 31.5362 72.2421 32.3174 71.376 33.1155C70.4759 33.8628 62.7659 37.3272 57.7901 32.0287C57.7901 32.0287 55.5144 29.4813 58.5882 27.5453C58.5882 27.5453 60.7959 26.1867 66.4511 27.7661C66.4511 27.7661 68.1493 28.3775 68.0814 29.0058C67.9795 29.6851 66.6719 30.3644 64.7698 30.3304C62.9357 30.2795 61.5771 29.3964 61.8489 29.5492C62.1036 29.6341 59.8619 28.4624 59.1656 29.2605C58.4863 30.0078 58.6562 30.4493 59.3355 30.9078C61.0337 31.8928 67.7078 31.5362 69.6947 29.3115C69.6947 29.3115 70.4929 28.4114 69.2871 27.6812C68.0984 27.0019 64.634 26.5773 63.2924 26.5264C62.0187 26.4584 57.2466 26.5264 56.5334 25.2867C56.5334 25.2867 55.8541 24.4036 56.6013 21.9921C57.3825 19.4447 62.9357 18.4597 65.3472 18.2559C65.3472 18.2559 71.9704 17.9842 73.2101 19.3428C73.2101 19.3428 73.3799 19.6485 73.1761 20.107M54.3936 35.0515C53.5954 35.6459 51.8972 35.3912 51.4047 34.7119C50.9292 34.1175 50.7593 31.7739 50.8443 28.0887C50.9631 24.3187 51.0141 19.6994 51.8632 18.9522C52.7123 18.222 53.2218 18.8673 53.5614 19.3598C53.9011 19.8693 54.3426 20.4297 54.4106 21.6015C54.5125 22.7902 54.8012 28.9039 54.8012 28.9039C54.8012 28.9039 55.1748 34.4741 54.4106 35.0515M56.0918 15.1821C53.7482 15.9803 52.1519 15.7256 50.7933 15.1312C50.1989 16.2011 49.8423 16.5237 49.4008 16.5917C48.7215 16.6596 48.1271 15.5727 48.0422 15.2331C47.9063 14.9783 47.5836 14.5198 47.9742 13.4839C46.6496 12.2951 46.5477 10.6988 46.7855 9.62889C47.0912 8.37219 49.3328 3.65109 56.1258 3.09067C56.1258 3.09067 59.4543 2.85292 60.0317 4.61908H60.1336C60.1336 4.61908 63.3603 4.61908 63.2924 7.50609C63.2924 10.3931 59.7261 13.9934 56.0918 15.2331M59.1147 6.96265C56.9749 7.3023 53.6803 10.1553 52.101 12.5159C54.5294 12.9574 58.775 12.7876 60.6771 8.94959C60.6771 8.94959 61.5771 6.53809 59.1147 6.96265ZM49.7234 8.83072C49.0441 9.93457 49.0102 10.5969 49.3328 11.0384C50.131 9.84966 51.5405 7.9816 53.6633 6.52111C52.033 6.69094 50.6575 7.37023 49.7234 8.83072ZM107.582 34.9327C106.02 38.7707 104.695 42.6596 103.931 48.4846C103.931 48.4846 103.761 49.6224 102.827 49.2488C101.893 48.9092 100.365 47.3807 100.025 45.224C99.6856 42.4049 100.942 37.6498 103.507 32.1815C102.759 30.9927 102.233 29.2266 102.658 26.7471C102.658 26.7471 103.337 22.1619 107.922 18.0182C107.922 18.0182 108.466 17.5597 108.771 17.7125C109.145 17.8823 108.992 19.3428 108.686 20.09C108.415 20.8033 106.377 24.3356 106.377 24.3356C106.377 24.3356 105.103 26.7471 105.46 28.6322C107.871 24.93 113.356 17.4238 116.753 19.8013C118.91 21.3298 118.91 26.2547 117.296 29.1077C116.023 31.3664 112.422 36.0365 107.616 34.9496M114.681 23.4016C113.424 24.7602 111.183 27.3415 109.417 30.8399C111.285 30.6361 113.102 29.6002 113.662 29.0737C114.562 28.2756 116.634 26.1188 116.311 23.2658C116.311 23.2658 116.108 21.7713 114.681 23.4016ZM38.6 36.9366C32.5882 38.7707 26.9161 37.9216 23.8253 37.1064C23.7404 38.3631 23.6045 38.8896 23.4007 39.0933C23.163 39.3651 21.193 40.4859 20.1061 38.8896C19.6306 38.1253 19.3929 36.7498 19.257 35.4931C12.2942 32.3343 9.06757 27.6812 8.96568 27.5113C8.79586 27.3415 7.21649 25.6942 8.79586 23.6563C10.2733 21.8222 15.1643 19.9712 19.5457 19.2409C19.7155 15.5048 20.1231 12.6178 20.6496 11.3441C21.2779 9.8157 22.0761 11.1743 22.7893 12.1932C23.3667 12.9574 23.7234 16.235 23.7573 18.8503C26.6104 18.7145 28.3426 18.9183 31.5183 19.5296C35.696 20.2429 38.4811 22.3827 38.2603 24.7942C38.0565 27.1717 35.8828 28.1567 35.0337 28.2246C34.1845 28.2925 32.8259 27.6642 32.8259 27.6642C31.8749 27.2226 32.741 26.8151 33.8449 26.3396C35.0676 25.7452 34.7959 25.1508 34.7959 25.1508C34.3544 23.7922 28.937 22.8921 23.5536 22.8921C23.5536 25.8641 23.6724 30.7889 23.7573 33.659C27.5274 34.3722 30.3465 34.2194 30.3465 34.2194C30.3465 34.2194 44.1023 33.8288 44.4928 25.0489C44.9174 16.252 30.7371 7.82876 20.2929 5.1795C9.86575 2.44534 3.95587 4.38133 3.4464 4.63607C2.88598 4.90778 3.39546 5.00968 3.39546 5.00968C3.39546 5.00968 3.95587 5.09459 4.97482 5.43424C5.99376 5.77389 5.17861 6.28336 5.17861 6.28336C3.39546 6.89472 1.40851 6.53809 1.01792 5.72294C0.627325 4.92477 1.27266 4.19452 2.03686 3.12463C2.75012 2.02078 3.56528 2.05474 3.56528 2.05474C16.4719 -2.44559 32.2316 5.62105 32.2316 5.62105C46.9723 13.0593 49.4857 21.8053 49.214 25.2017C48.9762 28.5473 47.6855 34.2024 38.6 36.9536M10.2394 24.7942C8.77887 25.4735 9.79782 26.5603 9.79782 26.5603C12.549 29.4983 15.9115 31.3494 19.1381 32.5042C19.5117 27.4095 19.4778 25.5923 19.4778 23.028C14.485 23.3676 11.598 24.1828 10.2394 24.7942Z" fill="black"/>
</g>
<defs>
<clipPath id="clip0_3_647">
<rect width="118.886" height="50" fill="white" transform="translate(0.214844)"/>
</clipPath>
</defs>
</svg>
