<svg width="25" height="25" viewBox="0 0 25 25" fill="none" xmlns="http://www.w3.org/2000/svg">
<path d="M11.2429 5.59232C11.6494 5.53223 12.0686 5.5 12.5004 5.5C17.6054 5.5 20.9553 10.0048 22.0807 11.7868C22.2169 12.0025 22.285 12.1103 22.3231 12.2767C22.3518 12.4016 22.3517 12.5987 22.3231 12.7236C22.2849 12.8899 22.2164 12.9985 22.0792 13.2156C21.7793 13.6901 21.3222 14.3571 20.7165 15.0805M7.22432 7.21504C5.06225 8.6817 3.59445 10.7194 2.92111 11.7853C2.78428 12.0019 2.71587 12.1102 2.67774 12.2765C2.6491 12.4014 2.64909 12.5984 2.67771 12.7234C2.71583 12.8897 2.78393 12.9975 2.92013 13.2132C4.04554 14.9952 7.39541 19.5 12.5004 19.5C14.5588 19.5 16.3319 18.7676 17.7888 17.7766M3.50042 3.5L21.5004 21.5M10.3791 10.3787C9.8362 10.9216 9.50042 11.6716 9.50042 12.5C9.50042 14.1569 10.8436 15.5 12.5004 15.5C13.3288 15.5 14.0788 15.1642 14.6217 14.6213" stroke="#9A9A9A" stroke-width="2" stroke-linecap="round" stroke-linejoin="round"/>
</svg>
