<svg width="56" height="56" viewBox="0 0 56 56" fill="none" xmlns="http://www.w3.org/2000/svg">
<rect x="4" y="4" width="48" height="48" rx="24" fill="#CBD7FC"/>
<rect x="4" y="4" width="48" height="48" rx="24" stroke="#E5EAFB" stroke-width="8"/>
<path d="M38.6323 18.0728C38.5871 17.9017 38.4971 17.7456 38.3714 17.6205C38.2458 17.4953 38.089 17.4057 37.9171 17.3607C35.8597 16.8288 33.6932 16.8862 31.6671 17.5263C29.6409 18.1664 27.8376 19.3633 26.4646 20.9791L25.3452 22.3014L22.7333 21.6742C22.0981 21.4535 21.4042 21.4692 20.7798 21.7183C20.1553 21.9674 19.6425 22.4332 19.3361 23.0295L17.1294 26.9245C17.0521 27.0609 17.0082 27.2134 17.001 27.3698C16.9939 27.5263 17.0238 27.6822 17.0883 27.825C17.1529 27.9678 17.2502 28.0934 17.3725 28.1919C17.4948 28.2903 17.6386 28.3587 17.7924 28.3916L20.8747 29.0498C20.6137 29.8411 20.4273 30.6549 20.318 31.4806C20.2982 31.6322 20.3135 31.7863 20.3629 31.9311C20.4123 32.0759 20.4944 32.2074 20.6029 32.3156L23.7123 35.4116C23.8055 35.5045 23.9162 35.5781 24.0381 35.6283C24.1599 35.6785 24.2905 35.7043 24.4224 35.7042C24.4505 35.7042 24.4796 35.7032 24.5087 35.7002C25.3567 35.6244 26.1944 35.4603 27.0082 35.2109L27.6542 38.211C27.6872 38.3641 27.7559 38.5073 27.8547 38.6291C27.9536 38.7509 28.0798 38.8478 28.2232 38.912C28.3666 38.9763 28.5232 39.0061 28.6803 38.999C28.8374 38.9919 28.9906 38.9481 29.1276 38.8712L33.0444 36.672C33.5958 36.3384 34.0265 35.8391 34.2744 35.246C34.5223 34.6529 34.5745 33.9968 34.4236 33.3722L33.7536 30.6157L34.9943 29.4802C36.623 28.1167 37.8294 26.3208 38.4732 24.3014C39.1171 22.282 39.1729 20.122 38.6323 18.0728ZM19.5457 26.7227L21.1064 23.9663C21.2035 23.7793 21.3688 23.6363 21.5683 23.5667C21.7678 23.4971 21.9865 23.506 22.1796 23.5918L23.9028 24.0072L23.2509 24.7782C22.6325 25.5158 22.0977 26.3189 21.6561 27.1732L19.5457 26.7227ZM32.0534 34.9342L29.3302 36.4642L28.8989 34.4618C29.7724 34.0282 30.5862 33.4844 31.3202 32.8439L32.0655 32.1618L32.4707 33.8236C32.5231 34.029 32.5112 34.2455 32.4367 34.444C32.3621 34.6424 32.2284 34.8135 32.0534 34.9342ZM33.6733 27.9781L29.9772 31.3598C28.5144 32.6193 26.7102 33.4199 24.7915 33.6608L22.3792 31.2599C22.7032 29.3443 23.5345 27.5495 24.7875 26.0606L26.4716 24.0701C26.4996 24.0412 26.5257 24.0105 26.5498 23.9783L27.9892 22.2754C29.0534 21.0239 30.4322 20.0761 31.9847 19.5286C33.5371 18.9812 35.2077 18.8538 36.8258 19.1594C37.1401 20.7756 37.0134 22.4461 36.459 23.997C35.9045 25.5478 34.9425 26.9232 33.6733 27.9781ZM32.7475 21.822C32.45 21.822 32.1591 21.9099 31.9116 22.0745C31.6642 22.2391 31.4714 22.4731 31.3575 22.7468C31.2436 23.0205 31.2138 23.3218 31.2719 23.6124C31.3299 23.903 31.4732 24.1699 31.6837 24.3794C31.8941 24.5889 32.1621 24.7316 32.454 24.7894C32.7459 24.8472 33.0484 24.8175 33.3233 24.7041C33.5982 24.5908 33.8332 24.3987 33.9985 24.1524C34.1638 23.906 34.2521 23.6164 34.2521 23.3201C34.2521 22.9228 34.0935 22.5417 33.8114 22.2608C33.5292 21.9799 33.1465 21.822 32.7475 21.822Z" fill="#1640C1"/>
</svg>
