<svg width="56" height="56" viewBox="0 0 56 56" fill="none" xmlns="http://www.w3.org/2000/svg">
<rect x="4" y="4" width="48" height="48" rx="24" fill="#CBD7FC"/>
<rect x="4" y="4" width="48" height="48" rx="24" stroke="#E5EAFB" stroke-width="8"/>
<path d="M37.9165 27.075C35.8972 22.0919 32.0986 19 28 19C23.9014 19 20.1028 22.0919 18.0835 27.075C18.0284 27.2091 18 27.3537 18 27.5C18 27.6463 18.0284 27.7909 18.0835 27.925C20.1028 32.9081 23.9014 36 28 36C32.0986 36 35.8972 32.9081 37.9165 27.925C37.9716 27.7909 38 27.6463 38 27.5C38 27.3537 37.9716 27.2091 37.9165 27.075ZM28 33.875C24.8311 33.875 21.8321 31.4419 20.1028 27.5C21.8321 23.5581 24.8311 21.125 28 21.125C31.1689 21.125 34.1679 23.5581 35.8972 27.5C34.1679 31.4419 31.1689 33.875 28 33.875ZM28 23.25C27.2092 23.25 26.4361 23.4993 25.7785 23.9663C25.1209 24.4333 24.6084 25.097 24.3058 25.8736C24.0031 26.6502 23.9239 27.5047 24.0782 28.3291C24.2325 29.1536 24.6133 29.9108 25.1726 30.5052C25.7318 31.0996 26.4443 31.5044 27.2199 31.6683C27.9956 31.8323 28.7996 31.7482 29.5302 31.4265C30.2609 31.1048 30.8853 30.5601 31.3247 29.8612C31.7641 29.1623 31.9986 28.3406 31.9986 27.5C31.9986 26.3728 31.5773 25.2918 30.8274 24.4948C30.0776 23.6978 29.0605 23.25 28 23.25ZM28 29.625C27.6046 29.625 27.218 29.5004 26.8892 29.2669C26.5605 29.0334 26.3042 28.7015 26.1529 28.3132C26.0016 27.9249 25.962 27.4976 26.0391 27.0854C26.1163 26.6732 26.3067 26.2946 26.5863 25.9974C26.8659 25.7002 27.2221 25.4978 27.61 25.4158C27.9978 25.3338 28.3998 25.3759 28.7651 25.5368C29.1304 25.6976 29.4427 25.97 29.6624 26.3194C29.882 26.6689 29.9993 27.0797 29.9993 27.5C29.9993 28.0636 29.7887 28.6041 29.4137 29.0026C29.0388 29.4011 28.5302 29.625 28 29.625Z" fill="#1640C1"/>
</svg>
