<svg width="57" height="57" viewBox="0 0 57 57" fill="none" xmlns="http://www.w3.org/2000/svg">
<rect x="4.5" y="4.66992" width="48" height="48" rx="24" fill="#CBD7FC"/>
<rect x="4.5" y="4.66992" width="48" height="48" rx="24" stroke="#E5EAFB" stroke-width="8"/>
<path d="M27.9818 26.9699C27.7418 26.9699 27.5071 27.0403 27.3075 27.1722C27.108 27.304 26.9524 27.4914 26.8605 27.7107C26.7687 27.93 26.7447 28.1713 26.7915 28.404C26.8383 28.6368 26.9539 28.8506 27.1236 29.0185C27.2934 29.1863 27.5096 29.3006 27.745 29.3469C27.9804 29.3932 28.2245 29.3694 28.4462 29.2786C28.668 29.1878 28.8575 29.0339 28.9909 28.8366C29.1242 28.6393 29.1954 28.4073 29.1954 28.1699C29.1954 27.8517 29.0676 27.5464 28.84 27.3214C28.6124 27.0964 28.3037 26.9699 27.9818 26.9699ZM37.2296 28.1699L37.3631 28.0019C39.0015 25.7699 39.3899 23.7179 38.4918 22.1699C37.5937 20.6219 35.5791 19.9379 32.8363 20.2139H32.6179C31.5134 17.7299 29.8751 16.1699 27.9818 16.1699C26.0885 16.1699 24.4501 17.7299 23.3579 20.2499L23.1273 20.2139C20.3845 19.9379 18.3699 20.6219 17.4718 22.1699C16.5737 23.7179 16.9621 25.7699 18.6005 28.0019L18.734 28.1699L18.6005 28.3379C16.9621 30.5699 16.5737 32.6219 17.4718 34.1699C18.2728 35.4899 19.8141 36.1859 21.9137 36.1859C22.2899 36.1859 22.6782 36.1859 23.1273 36.1259H23.3457C24.4501 38.6099 26.0885 40.1699 27.9818 40.1699C29.8751 40.1699 31.5135 38.6099 32.6057 36.0899H32.8242C33.2368 36.0899 33.6252 36.1499 34.0378 36.1499C36.1859 36.1499 37.7636 35.4539 38.5282 34.1339C39.4263 32.5859 39.0379 30.5339 37.3995 28.3019L37.2296 28.1699ZM19.5714 23.3699C19.8748 22.8419 20.785 22.5539 21.9986 22.5539H22.5933C22.4031 23.2921 22.2612 24.0417 22.1685 24.7979C21.5502 25.2604 20.9624 25.7614 20.4088 26.2979C19.4864 25.0979 19.2194 23.9699 19.5714 23.3699ZM19.5714 32.9699C19.2194 32.3699 19.5714 31.2419 20.3845 30.0059C20.9382 30.5425 21.526 31.0435 22.1442 31.5059C22.237 32.2661 22.3788 33.0197 22.569 33.7619C21.0641 33.8579 19.9233 33.5699 19.5714 32.9699ZM27.9818 18.5699C28.6614 18.5699 29.4746 19.3619 30.1663 20.7659C29.4249 20.9787 28.6956 21.2311 27.9818 21.5219C27.268 21.2311 26.5387 20.9787 25.7973 20.7659C26.489 19.3619 27.3022 18.5699 27.9818 18.5699ZM27.9818 37.7699C27.3022 37.7699 26.489 36.9779 25.7973 35.5739C26.5387 35.3611 27.268 35.1088 27.9818 34.8179C28.6956 35.1088 29.4249 35.3611 30.1663 35.5739C29.4746 36.9779 28.6614 37.7699 27.9818 37.7699ZM31.5377 30.1979C30.9795 30.5819 30.409 30.9419 29.8022 31.2899C29.1954 31.6379 28.5886 31.9499 27.9818 32.2259C27.375 31.9459 26.7682 31.6339 26.1614 31.2899C25.5545 30.9419 24.9477 30.5819 24.4259 30.1979C24.3409 29.5499 24.3409 28.8779 24.3409 28.1699C24.3409 27.4619 24.3409 26.7899 24.4259 26.1419C24.9841 25.7579 25.5545 25.3979 26.1614 25.0499C26.7682 24.7019 27.375 24.3899 27.9818 24.1139C28.5886 24.3939 29.1954 24.7059 29.8022 25.0499C30.409 25.3979 31.0159 25.7579 31.5377 26.1419C31.5377 26.7899 31.6227 27.4619 31.6227 28.1699C31.6227 28.8779 31.6227 29.5499 31.5377 30.1979ZM36.3922 32.9699C36.0403 33.5699 34.8995 33.8699 33.3946 33.7619C33.5847 33.0197 33.7266 32.2661 33.8193 31.5059C34.4376 31.0435 35.0254 30.5425 35.5791 30.0059C36.4772 31.2419 36.7442 32.3699 36.3922 32.9699ZM35.5791 26.3339C35.0254 25.7974 34.4376 25.2964 33.8193 24.8339C33.7266 24.0777 33.5848 23.3281 33.3946 22.5899H33.9893C35.2029 22.5899 36.0888 22.8779 36.4165 23.4059C36.7442 23.9339 36.4772 25.0979 35.5791 26.3339Z" fill="#1640C1"/>
</svg>
