<svg width="48" height="44" viewBox="0 0 48 44" fill="none" xmlns="http://www.w3.org/2000/svg">
<path d="M19.3827 29.4285L25.9012 31.7142C25.9012 31.7142 42.1975 28.2856 44.3704 28.2856C46.5432 28.2856 46.5432 30.5714 44.3704 32.8571C42.1975 35.1428 34.5926 41.9999 28.0741 41.9999C21.5556 41.9999 17.2099 38.5714 12.8642 38.5714H2" stroke="#2463EC" stroke-width="4" stroke-linecap="round" stroke-linejoin="round"/>
<path d="M2 24.8574C4.17284 22.5716 8.51852 19.1431 12.8642 19.1431C17.2099 19.1431 27.5309 23.7145 29.1605 26.0002C30.7901 28.2859 25.9012 31.7145 25.9012 31.7145" stroke="#2463EC" stroke-width="4" stroke-linecap="round" stroke-linejoin="round"/>
<path d="M40.0248 8.85693H29.1606C27.3606 8.85693 25.9014 10.392 25.9014 12.2855C25.9014 14.1791 27.3606 15.7141 29.1606 15.7141H40.0248C41.8249 15.7141 43.2841 14.1791 43.2841 12.2855C43.2841 10.392 41.8249 8.85693 40.0248 8.85693Z" stroke="#2463EC" stroke-width="4"/>
<path d="M25.9014 2H43.2841" stroke="#2463EC" stroke-width="4" stroke-linecap="round"/>
</svg>
