<svg width="44" height="40" viewBox="0 0 44 40" fill="none" xmlns="http://www.w3.org/2000/svg">
<path d="M37.7043 25.2573C36.592 28.814 34.3846 31.8948 31.4202 34.0276C28.4558 36.1604 24.8981 37.2276 21.2922 37.0655C17.6862 36.9034 14.2311 35.5211 11.4562 33.1304C8.68128 30.7396 6.73971 27.4724 5.929 23.8292L9.04933 23.1912L3.10933 16.8256L0 25.056L3.289 24.3876C4.2069 28.6642 6.45897 32.5086 9.6972 35.3268C12.9354 38.145 16.9796 39.7801 21.2046 39.9794C25.4297 40.1786 29.6006 38.931 33.0726 36.4293C36.5447 33.9275 39.1247 30.311 40.414 26.1385L37.7043 25.2573ZM40.7697 15.6102C39.8513 11.3338 37.5989 7.48961 34.3604 4.67181C31.1219 1.854 27.0777 0.219388 22.8526 0.0205562C18.6276 -0.178276 14.4569 1.06974 10.9851 3.57176C7.51329 6.07378 4.9336 9.69051 3.64467 13.8631L6.259 14.7442C7.37094 11.1875 9.57808 8.10649 12.5422 5.97339C15.5063 3.84029 19.0639 2.77276 22.6698 2.93438C26.2757 3.09601 29.7309 4.47788 32.5061 6.86824C35.2812 9.25859 37.2232 12.5256 38.0343 16.1685L34.914 16.8104L40.854 23.1608L44 14.9417L40.7697 15.6102Z" fill="#2463EC"/>
<path fill-rule="evenodd" clip-rule="evenodd" d="M33.1792 12.2565L32.2845 19.6703C32.0216 21.8493 31.2758 23.9358 30.1054 25.7668C28.935 27.5978 27.3718 29.1237 25.5378 30.2252L22.0031 32.3483L18.4685 30.2214C16.635 29.1203 15.072 27.595 13.9017 25.7647C12.7313 23.9344 11.9853 21.8487 11.7218 19.6703L10.8271 12.2565L12.0885 11.2614L13.7531 13.5289L14.4498 19.3171C14.6603 21.0602 15.2569 22.7292 16.1932 24.1939C17.1295 25.6585 18.3801 26.8791 19.8471 27.7602L22.0031 29.0554L24.1591 27.7602C25.6262 26.8791 26.8768 25.6585 27.8131 24.1939C28.7493 22.7292 29.346 21.0602 29.5565 19.3171L30.2532 13.5289L31.9178 11.2614L33.1792 12.2565ZM30.2532 13.5289C30.2532 13.5289 26.8175 10.8246 22.0031 10.8246C17.1888 10.8246 13.7531 13.5289 13.7531 13.5289L12.0885 11.2614L12.0921 11.2576L12.1031 11.25L12.1215 11.2348L12.1765 11.1968C12.419 11.0155 12.6685 10.8444 12.9245 10.6841C13.4085 10.3727 14.0941 9.97386 14.9521 9.57886C16.6498 8.78886 19.1065 7.97607 22.0031 7.97607C24.8998 7.97607 27.3528 8.78886 29.0541 9.57886C29.9595 10.0025 30.8302 10.5017 31.6575 11.0715L31.8298 11.1968L31.8848 11.2348L31.9031 11.25L31.9105 11.2576L31.9178 11.2614L30.2532 13.5289Z" fill="#2463EC"/>
</svg>
