<svg width="230" height="50" viewBox="0 0 230 50" fill="none" xmlns="http://www.w3.org/2000/svg">
<path d="M124.999 16.4994H130.109V30.7139C130.109 37.9291 126.133 42.0675 119.205 42.0675C112.35 42.0675 108.41 38.0011 108.41 30.9118V16.5174H113.52V30.7499C113.52 34.9603 115.589 37.2094 119.277 37.2094C122.966 37.2094 124.999 35.0142 124.999 30.9298V16.4994ZM96.2104 26.6475H84.6588V16.4994H79.5488V41.6896H84.6588V31.4516H96.1924V41.6896H101.302V16.4994H96.1924V26.6475H96.2104ZM224.177 16.4994V41.6537H229.215V16.4994H224.177ZM204.114 30.8399H213.417V26.2516H204.114V21.0877H217.609V16.5174H199.076V41.6717H218.095V37.0834H204.114V30.8399ZM184.07 33.8087L178.348 16.4814H174.174L168.452 33.8087L162.892 16.4994H157.459L166.239 41.6717H170.467L176.189 25.1361L181.911 41.6717H186.175L194.938 16.4994H189.63L184.07 33.8087ZM148.372 16.6434L159.366 41.6717H154.004L151.737 36.4357H140.203L140.041 36.7955L137.918 41.6717H132.7L143.802 16.4994H148.264L148.372 16.6434ZM149.596 31.2897L145.961 22.851L142.344 31.2897L142.093 31.8655H149.83L149.596 31.2897Z" fill="#24272A"/>
<path d="M29.2408 39.0088C29.3128 38.9549 29.3308 38.8469 29.2948 38.7569C24.3334 28.0931 18.1438 18.0449 10.8519 8.81657C10.8519 8.81657 5.0582 14.3224 5.47204 19.8463C5.56898 21.1198 5.91605 22.3617 6.4934 23.501C7.07075 24.6402 7.86704 25.6545 8.83673 26.4857C13.8928 31.4158 26.128 37.6414 28.9709 39.0628C29.0609 39.0988 29.1688 39.0808 29.2408 39.0088ZM27.3515 43.2192C27.3155 43.1112 27.2076 43.0393 27.0816 43.0393L6.71356 43.741C8.9267 47.6815 12.6513 50.7403 16.5197 49.8046C19.2007 49.1389 25.2464 44.9105 27.2436 43.4711C27.4055 43.3451 27.3515 43.2372 27.3515 43.2192ZM27.6574 41.4019C27.7654 41.24 27.5854 41.096 27.5854 41.096C18.6429 35.0504 1.29766 25.766 1.29766 25.766C0.72275 27.5281 0.561921 29.3991 0.827677 31.2336C1.09343 33.068 1.77862 34.8164 2.82997 36.343C3.88133 37.8695 5.27055 39.1331 6.88964 40.0355C8.50874 40.9378 10.3141 41.4547 12.1654 41.5458C12.4713 41.5998 24.2747 41.5458 27.4415 41.5279C27.5315 41.5099 27.6034 41.4739 27.6574 41.4019ZM29.0069 0.017993C28.1252 0.089965 25.7322 0.647748 25.7322 0.647748C20.3343 2.03321 19.0568 6.9453 19.0568 6.9453C18.0671 10.0221 19.0748 13.4228 19.0748 13.4228C20.8741 21.4117 29.7266 34.5646 31.6339 37.3175C31.7598 37.4614 31.8678 37.4075 31.8678 37.4075C31.9757 37.3715 32.0657 37.2815 32.0657 37.1556C35.0166 7.79097 29.0069 0.017993 29.0069 0.017993ZM35.7543 37.3715C35.8622 37.4075 35.9882 37.3715 36.0422 37.2635C38.0034 34.4386 46.802 21.3577 48.6013 13.4048C48.6013 13.4048 49.5729 9.55429 48.6373 6.92731C48.6373 6.92731 47.3058 1.94324 41.9079 0.629755C41.9079 0.629755 40.3605 0.233909 38.7051 0C38.7051 0 32.6595 7.77298 35.6103 37.1376C35.5923 37.2455 35.6643 37.3355 35.7543 37.3715ZM40.5764 43.0573C40.5284 43.0669 40.483 43.0863 40.4428 43.1141C40.4025 43.142 40.3684 43.1777 40.3425 43.2192C40.3245 43.3272 40.3425 43.4171 40.4145 43.4891C42.3577 44.8925 48.2774 49.0309 51.1203 49.8226C51.1203 49.8226 56.3922 51.6219 60.9625 43.759L40.5764 43.0573ZM66.3964 25.73C66.3964 25.73 49.0871 35.0324 40.1266 41.078C40.0366 41.15 39.9826 41.258 40.0186 41.3659C40.0186 41.3659 40.1086 41.5279 40.2345 41.5279C43.4373 41.5279 55.5646 41.5458 55.8884 41.4919C57.094 41.4019 58.2815 41.132 59.3971 40.6822C59.3971 40.6822 63.7154 39.3147 65.9465 34.4026C65.9465 34.4026 67.9438 30.4082 66.3964 25.73ZM38.4892 39.0088C38.5612 39.0628 38.6691 39.0808 38.7591 39.0268C41.674 37.5694 53.8192 31.3978 58.8393 26.4857C58.8393 26.4857 62.0241 23.9307 62.186 19.8103C62.5459 14.1065 56.8061 8.81657 56.8061 8.81657C56.8061 8.81657 46.1902 21.6816 38.3992 38.685C38.3867 38.7422 38.3884 38.8016 38.4041 38.858C38.4198 38.9145 38.449 38.9662 38.4892 39.0088Z" fill="#CE0E2D"/>
</svg>
