<svg width="426" height="372" viewBox="0 0 426 372" fill="none" xmlns="http://www.w3.org/2000/svg">
<circle cx="190" cy="154.67" r="153.5" stroke="#CECECE" stroke-width="2" stroke-dasharray="4 4"/>
<g filter="url(#filter0_dd_473_128)">
<rect x="128.5" y="275.17" width="52" height="51" rx="25.5" fill="#F8FAFC"/>
</g>
<g filter="url(#filter1_d_473_128)">
<g filter="url(#filter2_d_473_128)">
<path d="M168.5 298.214C168.5 304.313 163.463 309.258 157.25 309.258C151.037 309.258 146 304.313 146 298.214C146 292.115 151.037 287.17 157.25 287.17C163.463 287.17 168.5 292.115 168.5 298.214Z" fill="url(#paint0_linear_473_128)"/>
</g>
<g filter="url(#filter3_dd_473_128)">
<path fill-rule="evenodd" clip-rule="evenodd" d="M156.125 313.17C160.689 311.763 164 307.577 164 302.632C164 296.532 158.963 291.588 152.75 291.588C146.537 291.588 141.5 296.532 141.5 302.632C141.5 307.577 144.811 311.763 149.375 313.17V304.288H147.354C146.388 304.288 145.871 303.171 146.508 302.456L151.903 296.403C152.352 295.9 153.148 295.9 153.597 296.403L158.992 302.456C159.629 303.171 159.112 304.288 158.146 304.288H156.125V313.17Z" fill="white" fill-opacity="0.4"/>
</g>
</g>
<g filter="url(#filter4_dd_473_128)">
<rect x="318.5" y="137.17" width="52" height="51" rx="25.5" fill="#F8FAFC"/>
</g>
<g filter="url(#filter5_d_473_128)">
<g filter="url(#filter6_d_473_128)">
<path d="M358.538 159.837C358.538 166.28 353.114 171.503 346.423 171.503C339.732 171.503 334.308 166.28 334.308 159.837C334.308 153.393 339.732 148.17 346.423 148.17C353.114 148.17 358.538 153.393 358.538 159.837Z" fill="url(#paint1_linear_473_128)"/>
</g>
<g filter="url(#filter7_dd_473_128)">
<path fill-rule="evenodd" clip-rule="evenodd" d="M341.577 176.17C348.268 176.17 353.692 170.947 353.692 164.503C353.692 158.06 348.268 152.837 341.577 152.837C334.886 152.837 329.462 158.06 329.462 164.503C329.462 170.947 334.886 176.17 341.577 176.17ZM332.764 161.544C337.66 156.934 345.494 156.934 350.39 161.544C350.749 161.882 350.755 162.436 350.405 162.782C350.054 163.127 349.478 163.133 349.12 162.796C344.929 158.85 338.224 158.85 334.034 162.796C333.675 163.133 333.1 163.127 332.749 162.782C332.398 162.436 332.405 161.882 332.764 161.544ZM341.577 161.587C343.811 161.587 346.113 162.328 347.683 163.896C348.031 164.244 348.021 164.798 347.66 165.133C347.298 165.469 346.723 165.459 346.375 165.111C345.219 163.956 343.431 163.337 341.577 163.337C339.722 163.337 337.935 163.956 336.779 165.111C336.431 165.459 335.856 165.469 335.494 165.133C335.133 164.798 335.123 164.244 335.471 163.896C337.041 162.328 339.343 161.587 341.577 161.587ZM344.889 167.797C345.272 167.485 345.321 166.933 344.997 166.564C343.271 164.594 339.883 164.594 338.156 166.564C337.833 166.933 337.881 167.485 338.265 167.797C338.649 168.109 339.222 168.062 339.545 167.693C340.545 166.551 342.608 166.551 343.608 167.693C343.932 168.062 344.505 168.109 344.889 167.797ZM340.365 170.045C340.365 170.689 340.908 171.212 341.577 171.212C342.246 171.212 342.788 170.689 342.788 170.045C342.788 169.401 342.246 168.878 341.577 168.878C340.908 168.878 340.365 169.401 340.365 170.045Z" fill="white" fill-opacity="0.4"/>
</g>
</g>
<g filter="url(#filter8_dd_473_128)">
<rect x="35.5" y="43.17" width="52" height="51" rx="25.5" fill="#F8FAFC"/>
</g>
<g filter="url(#filter9_d_473_128)">
<path d="M64.875 72.545C64.875 69.4384 67.4774 66.92 70.6875 66.92C73.8976 66.92 76.5 69.4384 76.5 72.545C76.5 75.6516 73.8976 78.17 70.6875 78.17C67.4774 78.17 64.875 75.6516 64.875 72.545Z" fill="url(#paint2_linear_473_128)"/>
</g>
<g filter="url(#filter10_d_473_128)">
<path d="M50.6667 68.17C50.6667 67.4796 51.245 66.92 51.9583 66.92H61C61.7134 66.92 62.2917 67.4796 62.2917 68.17V76.92C62.2917 77.6103 61.7134 78.17 61 78.17H51.9583C51.245 78.17 50.6667 77.6103 50.6667 76.92V68.17Z" fill="url(#paint3_linear_473_128)"/>
</g>
<g filter="url(#filter11_d_473_128)">
<path d="M58.795 53.17H54.1633C53.9921 53.17 53.8278 53.2358 53.7067 53.353L50.8558 56.1119C50.7347 56.2291 50.6667 56.3881 50.6667 56.5539V61.0361C50.6667 61.2019 50.7347 61.3608 50.8558 61.478L53.7067 64.2369C53.8278 64.3541 53.9921 64.42 54.1633 64.42H58.795C58.9663 64.42 59.1305 64.3541 59.2517 64.2369L62.1025 61.478C62.2236 61.3608 62.2917 61.2019 62.2917 61.0361V56.5539C62.2917 56.3881 62.2236 56.2291 62.1025 56.1119L59.2517 53.353C59.1305 53.2358 58.9663 53.17 58.795 53.17Z" fill="url(#paint4_linear_473_128)"/>
</g>
<g filter="url(#filter12_d_473_128)">
<path d="M70.3986 53.729C70.5177 53.4987 70.8573 53.4987 70.9763 53.729L76.2662 63.9678C76.3737 64.1755 76.2174 64.42 75.9775 64.42H65.3975C65.1574 64.42 65.0013 64.1755 65.1087 63.9678L70.3986 53.729Z" fill="url(#paint5_linear_473_128)"/>
</g>
<g filter="url(#filter13_dd_473_128)">
<path d="M59.7083 77.545C59.7083 74.4384 62.3107 71.92 65.5208 71.92C68.731 71.92 71.3333 74.4384 71.3333 77.545C71.3333 80.6515 68.731 83.17 65.5208 83.17C62.3107 83.17 59.7083 80.6515 59.7083 77.545Z" fill="white" fill-opacity="0.4"/>
</g>
<g filter="url(#filter14_dd_473_128)">
<path d="M45.5 73.17C45.5 72.4796 46.0783 71.92 46.7917 71.92H55.8333C56.5467 71.92 57.125 72.4796 57.125 73.17V81.92C57.125 82.6103 56.5467 83.17 55.8333 83.17H46.7917C46.0783 83.17 45.5 82.6103 45.5 81.92V73.17Z" fill="white" fill-opacity="0.4"/>
</g>
<g filter="url(#filter15_dd_473_128)">
<path d="M53.6283 58.17H48.9967C48.8254 58.17 48.6611 58.2358 48.54 58.353L45.6892 61.1119C45.568 61.2291 45.5 61.3881 45.5 61.5539V66.0361C45.5 66.2019 45.568 66.3608 45.6892 66.478L48.54 69.2369C48.6611 69.3541 48.8254 69.42 48.9967 69.42H53.6283C53.7996 69.42 53.9639 69.3541 54.085 69.2369L56.9358 66.478C57.057 66.3608 57.125 66.2019 57.125 66.0361V61.5539C57.125 61.3881 57.057 61.2291 56.9358 61.1119L54.085 58.353C53.9639 58.2358 53.7996 58.17 53.6283 58.17Z" fill="white" fill-opacity="0.4"/>
</g>
<g filter="url(#filter16_dd_473_128)">
<path d="M65.232 58.729C65.351 58.4987 65.6907 58.4987 65.8096 58.729L71.0996 68.9678C71.207 69.1755 71.0509 69.42 70.8108 69.42H60.2308C59.9908 69.42 59.8346 69.1755 59.942 68.9678L65.232 58.729Z" fill="white" fill-opacity="0.4"/>
</g>
<defs>
<filter id="filter0_dd_473_128" x="93.5" y="240.17" width="142" height="131" filterUnits="userSpaceOnUse" color-interpolation-filters="sRGB">
<feFlood flood-opacity="0" result="BackgroundImageFix"/>
<feColorMatrix in="SourceAlpha" type="matrix" values="0 0 0 0 0 0 0 0 0 0 0 0 0 0 0 0 0 0 127 0" result="hardAlpha"/>
<feOffset dx="-15" dy="-5"/>
<feGaussianBlur stdDeviation="10"/>
<feComposite in2="hardAlpha" operator="out"/>
<feColorMatrix type="matrix" values="0 0 0 0 1 0 0 0 0 1 0 0 0 0 1 0 0 0 1 0"/>
<feBlend mode="normal" in2="BackgroundImageFix" result="effect1_dropShadow_473_128"/>
<feColorMatrix in="SourceAlpha" type="matrix" values="0 0 0 0 0 0 0 0 0 0 0 0 0 0 0 0 0 0 127 0" result="hardAlpha"/>
<feOffset dx="15" dy="5"/>
<feGaussianBlur stdDeviation="20"/>
<feComposite in2="hardAlpha" operator="out"/>
<feColorMatrix type="matrix" values="0 0 0 0 0.819608 0 0 0 0 0.85098 0 0 0 0 0.901961 0 0 0 0.6 0"/>
<feBlend mode="normal" in2="effect1_dropShadow_473_128" result="effect2_dropShadow_473_128"/>
<feBlend mode="normal" in="SourceGraphic" in2="effect2_dropShadow_473_128" result="shape"/>
</filter>
<filter id="filter1_d_473_128" x="137.5" y="283.17" width="43" height="42" filterUnits="userSpaceOnUse" color-interpolation-filters="sRGB">
<feFlood flood-opacity="0" result="BackgroundImageFix"/>
<feColorMatrix in="SourceAlpha" type="matrix" values="0 0 0 0 0 0 0 0 0 0 0 0 0 0 0 0 0 0 127 0" result="hardAlpha"/>
<feOffset dx="4" dy="4"/>
<feGaussianBlur stdDeviation="4"/>
<feColorMatrix type="matrix" values="0 0 0 0 0.956863 0 0 0 0 0.364706 0 0 0 0 0.827451 0 0 0 0.2 0"/>
<feBlend mode="normal" in2="BackgroundImageFix" result="effect1_dropShadow_473_128"/>
<feBlend mode="normal" in="SourceGraphic" in2="effect1_dropShadow_473_128" result="shape"/>
</filter>
<filter id="filter2_d_473_128" x="138" y="279.17" width="38.5" height="38.0879" filterUnits="userSpaceOnUse" color-interpolation-filters="sRGB">
<feFlood flood-opacity="0" result="BackgroundImageFix"/>
<feColorMatrix in="SourceAlpha" type="matrix" values="0 0 0 0 0 0 0 0 0 0 0 0 0 0 0 0 0 0 127 0" result="hardAlpha"/>
<feOffset/>
<feGaussianBlur stdDeviation="4"/>
<feComposite in2="hardAlpha" operator="out"/>
<feColorMatrix type="matrix" values="0 0 0 0 1 0 0 0 0 1 0 0 0 0 1 0 0 0 0.8 0"/>
<feBlend mode="normal" in2="BackgroundImageFix" result="effect1_dropShadow_473_128"/>
<feBlend mode="normal" in="SourceGraphic" in2="effect1_dropShadow_473_128" result="shape"/>
</filter>
<filter id="filter3_dd_473_128" x="133.5" y="287.588" width="38.5" height="37.5824" filterUnits="userSpaceOnUse" color-interpolation-filters="sRGB">
<feFlood flood-opacity="0" result="BackgroundImageFix"/>
<feColorMatrix in="SourceAlpha" type="matrix" values="0 0 0 0 0 0 0 0 0 0 0 0 0 0 0 0 0 0 127 0" result="hardAlpha"/>
<feOffset/>
<feGaussianBlur stdDeviation="2"/>
<feComposite in2="hardAlpha" operator="out"/>
<feColorMatrix type="matrix" values="0 0 0 0 1 0 0 0 0 1 0 0 0 0 1 0 0 0 1 0"/>
<feBlend mode="normal" in2="BackgroundImageFix" result="effect1_dropShadow_473_128"/>
<feColorMatrix in="SourceAlpha" type="matrix" values="0 0 0 0 0 0 0 0 0 0 0 0 0 0 0 0 0 0 127 0" result="hardAlpha"/>
<feOffset dy="4"/>
<feGaussianBlur stdDeviation="4"/>
<feComposite in2="hardAlpha" operator="out"/>
<feColorMatrix type="matrix" values="0 0 0 0 1 0 0 0 0 1 0 0 0 0 1 0 0 0 1 0"/>
<feBlend mode="normal" in2="effect1_dropShadow_473_128" result="effect2_dropShadow_473_128"/>
<feBlend mode="normal" in="SourceGraphic" in2="effect2_dropShadow_473_128" result="shape"/>
</filter>
<filter id="filter4_dd_473_128" x="283.5" y="102.17" width="142" height="131" filterUnits="userSpaceOnUse" color-interpolation-filters="sRGB">
<feFlood flood-opacity="0" result="BackgroundImageFix"/>
<feColorMatrix in="SourceAlpha" type="matrix" values="0 0 0 0 0 0 0 0 0 0 0 0 0 0 0 0 0 0 127 0" result="hardAlpha"/>
<feOffset dx="-15" dy="-5"/>
<feGaussianBlur stdDeviation="10"/>
<feComposite in2="hardAlpha" operator="out"/>
<feColorMatrix type="matrix" values="0 0 0 0 1 0 0 0 0 1 0 0 0 0 1 0 0 0 1 0"/>
<feBlend mode="normal" in2="BackgroundImageFix" result="effect1_dropShadow_473_128"/>
<feColorMatrix in="SourceAlpha" type="matrix" values="0 0 0 0 0 0 0 0 0 0 0 0 0 0 0 0 0 0 127 0" result="hardAlpha"/>
<feOffset dx="15" dy="5"/>
<feGaussianBlur stdDeviation="20"/>
<feComposite in2="hardAlpha" operator="out"/>
<feColorMatrix type="matrix" values="0 0 0 0 0.819608 0 0 0 0 0.85098 0 0 0 0 0.901961 0 0 0 0.6 0"/>
<feBlend mode="normal" in2="effect1_dropShadow_473_128" result="effect2_dropShadow_473_128"/>
<feBlend mode="normal" in="SourceGraphic" in2="effect2_dropShadow_473_128" result="shape"/>
</filter>
<filter id="filter5_d_473_128" x="325.462" y="144.17" width="45.0769" height="44" filterUnits="userSpaceOnUse" color-interpolation-filters="sRGB">
<feFlood flood-opacity="0" result="BackgroundImageFix"/>
<feColorMatrix in="SourceAlpha" type="matrix" values="0 0 0 0 0 0 0 0 0 0 0 0 0 0 0 0 0 0 127 0" result="hardAlpha"/>
<feOffset dx="4" dy="4"/>
<feGaussianBlur stdDeviation="4"/>
<feColorMatrix type="matrix" values="0 0 0 0 0.180392 0 0 0 0 0.764706 0 0 0 0 0.835294 0 0 0 0.4 0"/>
<feBlend mode="normal" in2="BackgroundImageFix" result="effect1_dropShadow_473_128"/>
<feBlend mode="normal" in="SourceGraphic" in2="effect1_dropShadow_473_128" result="shape"/>
</filter>
<filter id="filter6_d_473_128" x="326.308" y="140.17" width="40.2308" height="39.3333" filterUnits="userSpaceOnUse" color-interpolation-filters="sRGB">
<feFlood flood-opacity="0" result="BackgroundImageFix"/>
<feColorMatrix in="SourceAlpha" type="matrix" values="0 0 0 0 0 0 0 0 0 0 0 0 0 0 0 0 0 0 127 0" result="hardAlpha"/>
<feOffset/>
<feGaussianBlur stdDeviation="4"/>
<feComposite in2="hardAlpha" operator="out"/>
<feColorMatrix type="matrix" values="0 0 0 0 1 0 0 0 0 1 0 0 0 0 1 0 0 0 0.8 0"/>
<feBlend mode="normal" in2="BackgroundImageFix" result="effect1_dropShadow_473_128"/>
<feBlend mode="normal" in="SourceGraphic" in2="effect1_dropShadow_473_128" result="shape"/>
</filter>
<filter id="filter7_dd_473_128" x="321.462" y="148.837" width="40.2308" height="39.3333" filterUnits="userSpaceOnUse" color-interpolation-filters="sRGB">
<feFlood flood-opacity="0" result="BackgroundImageFix"/>
<feColorMatrix in="SourceAlpha" type="matrix" values="0 0 0 0 0 0 0 0 0 0 0 0 0 0 0 0 0 0 127 0" result="hardAlpha"/>
<feOffset/>
<feGaussianBlur stdDeviation="2"/>
<feComposite in2="hardAlpha" operator="out"/>
<feColorMatrix type="matrix" values="0 0 0 0 1 0 0 0 0 1 0 0 0 0 1 0 0 0 1 0"/>
<feBlend mode="normal" in2="BackgroundImageFix" result="effect1_dropShadow_473_128"/>
<feColorMatrix in="SourceAlpha" type="matrix" values="0 0 0 0 0 0 0 0 0 0 0 0 0 0 0 0 0 0 127 0" result="hardAlpha"/>
<feOffset dy="4"/>
<feGaussianBlur stdDeviation="4"/>
<feComposite in2="hardAlpha" operator="out"/>
<feColorMatrix type="matrix" values="0 0 0 0 1 0 0 0 0 1 0 0 0 0 1 0 0 0 1 0"/>
<feBlend mode="normal" in2="effect1_dropShadow_473_128" result="effect2_dropShadow_473_128"/>
<feBlend mode="normal" in="SourceGraphic" in2="effect2_dropShadow_473_128" result="shape"/>
</filter>
<filter id="filter8_dd_473_128" x="0.5" y="8.16998" width="142" height="131" filterUnits="userSpaceOnUse" color-interpolation-filters="sRGB">
<feFlood flood-opacity="0" result="BackgroundImageFix"/>
<feColorMatrix in="SourceAlpha" type="matrix" values="0 0 0 0 0 0 0 0 0 0 0 0 0 0 0 0 0 0 127 0" result="hardAlpha"/>
<feOffset dx="-15" dy="-5"/>
<feGaussianBlur stdDeviation="10"/>
<feComposite in2="hardAlpha" operator="out"/>
<feColorMatrix type="matrix" values="0 0 0 0 1 0 0 0 0 1 0 0 0 0 1 0 0 0 1 0"/>
<feBlend mode="normal" in2="BackgroundImageFix" result="effect1_dropShadow_473_128"/>
<feColorMatrix in="SourceAlpha" type="matrix" values="0 0 0 0 0 0 0 0 0 0 0 0 0 0 0 0 0 0 127 0" result="hardAlpha"/>
<feOffset dx="15" dy="5"/>
<feGaussianBlur stdDeviation="20"/>
<feComposite in2="hardAlpha" operator="out"/>
<feColorMatrix type="matrix" values="0 0 0 0 0.819608 0 0 0 0 0.85098 0 0 0 0 0.901961 0 0 0 0.6 0"/>
<feBlend mode="normal" in2="effect1_dropShadow_473_128" result="effect2_dropShadow_473_128"/>
<feBlend mode="normal" in="SourceGraphic" in2="effect2_dropShadow_473_128" result="shape"/>
</filter>
<filter id="filter9_d_473_128" x="56.875" y="58.92" width="27.625" height="27.25" filterUnits="userSpaceOnUse" color-interpolation-filters="sRGB">
<feFlood flood-opacity="0" result="BackgroundImageFix"/>
<feColorMatrix in="SourceAlpha" type="matrix" values="0 0 0 0 0 0 0 0 0 0 0 0 0 0 0 0 0 0 127 0" result="hardAlpha"/>
<feOffset/>
<feGaussianBlur stdDeviation="4"/>
<feComposite in2="hardAlpha" operator="out"/>
<feColorMatrix type="matrix" values="0 0 0 0 1 0 0 0 0 1 0 0 0 0 1 0 0 0 0.8 0"/>
<feBlend mode="normal" in2="BackgroundImageFix" result="effect1_dropShadow_473_128"/>
<feBlend mode="normal" in="SourceGraphic" in2="effect1_dropShadow_473_128" result="shape"/>
</filter>
<filter id="filter10_d_473_128" x="42.6667" y="58.92" width="27.625" height="27.25" filterUnits="userSpaceOnUse" color-interpolation-filters="sRGB">
<feFlood flood-opacity="0" result="BackgroundImageFix"/>
<feColorMatrix in="SourceAlpha" type="matrix" values="0 0 0 0 0 0 0 0 0 0 0 0 0 0 0 0 0 0 127 0" result="hardAlpha"/>
<feOffset/>
<feGaussianBlur stdDeviation="4"/>
<feComposite in2="hardAlpha" operator="out"/>
<feColorMatrix type="matrix" values="0 0 0 0 1 0 0 0 0 1 0 0 0 0 1 0 0 0 0.8 0"/>
<feBlend mode="normal" in2="BackgroundImageFix" result="effect1_dropShadow_473_128"/>
<feBlend mode="normal" in="SourceGraphic" in2="effect1_dropShadow_473_128" result="shape"/>
</filter>
<filter id="filter11_d_473_128" x="42.6667" y="45.17" width="27.625" height="27.25" filterUnits="userSpaceOnUse" color-interpolation-filters="sRGB">
<feFlood flood-opacity="0" result="BackgroundImageFix"/>
<feColorMatrix in="SourceAlpha" type="matrix" values="0 0 0 0 0 0 0 0 0 0 0 0 0 0 0 0 0 0 127 0" result="hardAlpha"/>
<feOffset/>
<feGaussianBlur stdDeviation="4"/>
<feComposite in2="hardAlpha" operator="out"/>
<feColorMatrix type="matrix" values="0 0 0 0 1 0 0 0 0 1 0 0 0 0 1 0 0 0 0.8 0"/>
<feBlend mode="normal" in2="BackgroundImageFix" result="effect1_dropShadow_473_128"/>
<feBlend mode="normal" in="SourceGraphic" in2="effect1_dropShadow_473_128" result="shape"/>
</filter>
<filter id="filter12_d_473_128" x="57.0741" y="45.5563" width="27.2266" height="26.8637" filterUnits="userSpaceOnUse" color-interpolation-filters="sRGB">
<feFlood flood-opacity="0" result="BackgroundImageFix"/>
<feColorMatrix in="SourceAlpha" type="matrix" values="0 0 0 0 0 0 0 0 0 0 0 0 0 0 0 0 0 0 127 0" result="hardAlpha"/>
<feOffset/>
<feGaussianBlur stdDeviation="4"/>
<feComposite in2="hardAlpha" operator="out"/>
<feColorMatrix type="matrix" values="0 0 0 0 1 0 0 0 0 1 0 0 0 0 1 0 0 0 0.8 0"/>
<feBlend mode="normal" in2="BackgroundImageFix" result="effect1_dropShadow_473_128"/>
<feBlend mode="normal" in="SourceGraphic" in2="effect1_dropShadow_473_128" result="shape"/>
</filter>
<filter id="filter13_dd_473_128" x="51.7083" y="67.92" width="27.625" height="27.25" filterUnits="userSpaceOnUse" color-interpolation-filters="sRGB">
<feFlood flood-opacity="0" result="BackgroundImageFix"/>
<feColorMatrix in="SourceAlpha" type="matrix" values="0 0 0 0 0 0 0 0 0 0 0 0 0 0 0 0 0 0 127 0" result="hardAlpha"/>
<feOffset/>
<feGaussianBlur stdDeviation="2"/>
<feComposite in2="hardAlpha" operator="out"/>
<feColorMatrix type="matrix" values="0 0 0 0 1 0 0 0 0 1 0 0 0 0 1 0 0 0 1 0"/>
<feBlend mode="normal" in2="BackgroundImageFix" result="effect1_dropShadow_473_128"/>
<feColorMatrix in="SourceAlpha" type="matrix" values="0 0 0 0 0 0 0 0 0 0 0 0 0 0 0 0 0 0 127 0" result="hardAlpha"/>
<feOffset dy="4"/>
<feGaussianBlur stdDeviation="4"/>
<feComposite in2="hardAlpha" operator="out"/>
<feColorMatrix type="matrix" values="0 0 0 0 1 0 0 0 0 1 0 0 0 0 1 0 0 0 1 0"/>
<feBlend mode="normal" in2="effect1_dropShadow_473_128" result="effect2_dropShadow_473_128"/>
<feBlend mode="normal" in="SourceGraphic" in2="effect2_dropShadow_473_128" result="shape"/>
</filter>
<filter id="filter14_dd_473_128" x="37.5" y="67.92" width="27.625" height="27.25" filterUnits="userSpaceOnUse" color-interpolation-filters="sRGB">
<feFlood flood-opacity="0" result="BackgroundImageFix"/>
<feColorMatrix in="SourceAlpha" type="matrix" values="0 0 0 0 0 0 0 0 0 0 0 0 0 0 0 0 0 0 127 0" result="hardAlpha"/>
<feOffset/>
<feGaussianBlur stdDeviation="2"/>
<feComposite in2="hardAlpha" operator="out"/>
<feColorMatrix type="matrix" values="0 0 0 0 1 0 0 0 0 1 0 0 0 0 1 0 0 0 1 0"/>
<feBlend mode="normal" in2="BackgroundImageFix" result="effect1_dropShadow_473_128"/>
<feColorMatrix in="SourceAlpha" type="matrix" values="0 0 0 0 0 0 0 0 0 0 0 0 0 0 0 0 0 0 127 0" result="hardAlpha"/>
<feOffset dy="4"/>
<feGaussianBlur stdDeviation="4"/>
<feComposite in2="hardAlpha" operator="out"/>
<feColorMatrix type="matrix" values="0 0 0 0 1 0 0 0 0 1 0 0 0 0 1 0 0 0 1 0"/>
<feBlend mode="normal" in2="effect1_dropShadow_473_128" result="effect2_dropShadow_473_128"/>
<feBlend mode="normal" in="SourceGraphic" in2="effect2_dropShadow_473_128" result="shape"/>
</filter>
<filter id="filter15_dd_473_128" x="37.5" y="54.17" width="27.625" height="27.25" filterUnits="userSpaceOnUse" color-interpolation-filters="sRGB">
<feFlood flood-opacity="0" result="BackgroundImageFix"/>
<feColorMatrix in="SourceAlpha" type="matrix" values="0 0 0 0 0 0 0 0 0 0 0 0 0 0 0 0 0 0 127 0" result="hardAlpha"/>
<feOffset/>
<feGaussianBlur stdDeviation="2"/>
<feComposite in2="hardAlpha" operator="out"/>
<feColorMatrix type="matrix" values="0 0 0 0 1 0 0 0 0 1 0 0 0 0 1 0 0 0 1 0"/>
<feBlend mode="normal" in2="BackgroundImageFix" result="effect1_dropShadow_473_128"/>
<feColorMatrix in="SourceAlpha" type="matrix" values="0 0 0 0 0 0 0 0 0 0 0 0 0 0 0 0 0 0 127 0" result="hardAlpha"/>
<feOffset dy="4"/>
<feGaussianBlur stdDeviation="4"/>
<feComposite in2="hardAlpha" operator="out"/>
<feColorMatrix type="matrix" values="0 0 0 0 1 0 0 0 0 1 0 0 0 0 1 0 0 0 1 0"/>
<feBlend mode="normal" in2="effect1_dropShadow_473_128" result="effect2_dropShadow_473_128"/>
<feBlend mode="normal" in="SourceGraphic" in2="effect2_dropShadow_473_128" result="shape"/>
</filter>
<filter id="filter16_dd_473_128" x="51.9075" y="54.5563" width="27.2267" height="26.8637" filterUnits="userSpaceOnUse" color-interpolation-filters="sRGB">
<feFlood flood-opacity="0" result="BackgroundImageFix"/>
<feColorMatrix in="SourceAlpha" type="matrix" values="0 0 0 0 0 0 0 0 0 0 0 0 0 0 0 0 0 0 127 0" result="hardAlpha"/>
<feOffset/>
<feGaussianBlur stdDeviation="2"/>
<feComposite in2="hardAlpha" operator="out"/>
<feColorMatrix type="matrix" values="0 0 0 0 1 0 0 0 0 1 0 0 0 0 1 0 0 0 1 0"/>
<feBlend mode="normal" in2="BackgroundImageFix" result="effect1_dropShadow_473_128"/>
<feColorMatrix in="SourceAlpha" type="matrix" values="0 0 0 0 0 0 0 0 0 0 0 0 0 0 0 0 0 0 127 0" result="hardAlpha"/>
<feOffset dy="4"/>
<feGaussianBlur stdDeviation="4"/>
<feComposite in2="hardAlpha" operator="out"/>
<feColorMatrix type="matrix" values="0 0 0 0 1 0 0 0 0 1 0 0 0 0 1 0 0 0 1 0"/>
<feBlend mode="normal" in2="effect1_dropShadow_473_128" result="effect2_dropShadow_473_128"/>
<feBlend mode="normal" in="SourceGraphic" in2="effect2_dropShadow_473_128" result="shape"/>
</filter>
<linearGradient id="paint0_linear_473_128" x1="157.25" y1="287.17" x2="157.25" y2="309.258" gradientUnits="userSpaceOnUse">
<stop stop-color="#FC954B"/>
<stop offset="1" stop-color="#F45DD3"/>
</linearGradient>
<linearGradient id="paint1_linear_473_128" x1="346.423" y1="148.17" x2="346.423" y2="171.503" gradientUnits="userSpaceOnUse">
<stop stop-color="#31C8D2"/>
<stop offset="1" stop-color="#1AA6E1"/>
</linearGradient>
<linearGradient id="paint2_linear_473_128" x1="70.6875" y1="66.92" x2="70.6875" y2="78.17" gradientUnits="userSpaceOnUse">
<stop stop-color="#6966FF"/>
<stop offset="1" stop-color="#9D68F3"/>
</linearGradient>
<linearGradient id="paint3_linear_473_128" x1="56.4792" y1="66.92" x2="56.4792" y2="78.17" gradientUnits="userSpaceOnUse">
<stop stop-color="#6966FF"/>
<stop offset="1" stop-color="#9D68F3"/>
</linearGradient>
<linearGradient id="paint4_linear_473_128" x1="56.4792" y1="53.17" x2="56.4792" y2="64.42" gradientUnits="userSpaceOnUse">
<stop stop-color="#6966FF"/>
<stop offset="1" stop-color="#9D68F3"/>
</linearGradient>
<linearGradient id="paint5_linear_473_128" x1="70.6875" y1="53.5563" x2="70.6875" y2="64.42" gradientUnits="userSpaceOnUse">
<stop stop-color="#6966FF"/>
<stop offset="1" stop-color="#9D68F3"/>
</linearGradient>
</defs>
</svg>
