<svg width="244" height="497" viewBox="0 0 244 497" fill="none" xmlns="http://www.w3.org/2000/svg">
<path d="M241.905 127.224H242.769C243.246 127.224 243.633 127.612 243.633 128.091V184.763C243.633 185.242 243.246 185.631 242.769 185.631H241.905V127.224Z" fill="#303030"/>
<path d="M1.72754 197.775L0.863589 197.775C0.386445 197.775 -0.000356164 197.387 -0.000356122 196.907L-0.000353151 162.788C-0.000353109 162.309 0.386449 161.921 0.863593 161.921L1.72754 161.921L1.72754 197.775Z" fill="#303030"/>
<path d="M1.72754 150.355L0.863589 150.355C0.386445 150.355 -0.000356164 149.967 -0.000356122 149.488L-0.000353151 115.369C-0.000353109 114.89 0.386449 114.502 0.863593 114.502L1.72754 114.502L1.72754 150.355Z" fill="#333333"/>
<path d="M1.72754 97.1528L0.863592 97.1528C0.386448 97.1528 -0.000353899 96.7645 -0.000353857 96.2854L-0.000352397 79.515C-0.000352355 79.0359 0.386449 78.6476 0.863593 78.6476L1.72754 78.6476L1.72754 97.1528Z" fill="#333333"/>
<path fill-rule="evenodd" clip-rule="evenodd" d="M3.55987 25.9732C1.72754 31.6353 1.72754 38.6317 1.72754 52.6243V443.548C1.72754 457.541 1.72754 464.537 3.55987 470.199C7.26312 481.642 16.1989 490.614 27.5963 494.332C33.2357 496.172 40.2039 496.172 54.1403 496.172H189.492C203.428 496.172 210.396 496.172 216.036 494.332C227.433 490.614 236.369 481.642 240.072 470.199C241.905 464.537 241.905 457.541 241.905 443.548V52.6243C241.905 38.6317 241.905 31.6353 240.072 25.9732C236.369 14.5298 227.433 5.55793 216.036 1.83973C210.396 0 203.428 0 189.492 0H54.1403C40.2039 0 33.2357 0 27.5963 1.83973C16.1989 5.55793 7.26312 14.5298 3.55987 25.9732ZM62.7802 14.1681V16.7704L62.8213 16.7691L62.78 17.0595C62.78 23.9262 68.3242 29.4927 75.1632 29.4927H168.469C175.308 29.4927 180.853 23.9262 180.853 17.0595L180.811 16.7691L180.852 16.7704V14.1681C180.852 12.4115 182.271 10.9875 184.02 10.9875L191.439 10.9875C203.036 10.9875 208.835 10.9875 213.46 12.7421C220.729 15.5 226.467 21.2613 229.214 28.5598C230.961 33.2032 230.961 39.0254 230.961 50.6697V445.503C230.961 457.147 230.961 462.969 229.214 467.612C226.467 474.911 220.729 480.672 213.46 483.43C208.835 485.185 203.036 485.185 191.439 485.185H52.1938C40.5963 485.185 34.7975 485.185 30.1728 483.43C22.9036 480.672 17.1655 474.911 14.4187 467.612C12.6711 462.969 12.6711 457.147 12.6711 445.503V50.6697C12.6711 39.0254 12.6711 33.2032 14.4187 28.5598C17.1655 21.2613 22.9036 15.5 30.1728 12.7421C34.7975 10.9875 40.5963 10.9875 52.1938 10.9875L59.6124 10.9875C61.3619 10.9875 62.7802 12.4115 62.7802 14.1681Z" fill="#333333"/>
<path fill-rule="evenodd" clip-rule="evenodd" d="M189.721 1.1569H53.9091C40.1423 1.1569 33.3955 1.16404 27.9515 2.94002C16.9048 6.54382 8.24396 15.2396 4.65465 26.331C2.8858 31.7969 2.8787 38.5709 2.8787 52.3933V443.78C2.8787 457.602 2.8858 464.376 4.65465 469.842C8.24396 480.933 16.9048 489.629 27.9515 493.233C33.3955 495.009 40.1423 495.016 53.9091 495.016H189.721C203.488 495.016 210.235 495.009 215.679 493.233C226.726 489.629 235.387 480.933 238.976 469.842C240.745 464.376 240.752 457.602 240.752 443.78V52.3933C240.752 38.5709 240.745 31.7969 238.976 26.331C235.387 15.2396 226.726 6.54382 215.679 2.94002C210.235 1.16404 203.488 1.1569 189.721 1.1569ZM4.10687 26.1523C2.30273 31.7272 2.30273 38.6159 2.30273 52.3933V443.78C2.30273 457.557 2.30273 464.446 4.10687 470.021C7.75316 481.288 16.5514 490.122 27.7735 493.783C33.3261 495.594 40.1871 495.594 53.9091 495.594H189.721C203.443 495.594 210.304 495.594 215.857 493.783C227.079 490.122 235.877 481.288 239.524 470.021C241.328 464.446 241.328 457.557 241.328 443.78V52.3933C241.328 38.6159 241.328 31.7272 239.524 26.1523C235.877 14.8848 227.079 6.05104 215.857 2.39004C210.304 0.578613 203.443 0.578613 189.721 0.578613H53.9091C40.1871 0.578613 33.3261 0.578613 27.7735 2.39004C16.5514 6.05104 7.75316 14.8848 4.10687 26.1523Z" fill="#303030"/>
<path fill-rule="evenodd" clip-rule="evenodd" d="M6.29978 26.8669C4.6084 32.0934 4.6084 38.5516 4.6084 51.4679V444.705C4.6084 457.621 4.6084 464.079 6.29978 469.306C9.71817 479.869 17.9666 488.15 28.4873 491.583C33.6928 493.281 40.125 493.281 52.9894 493.281H190.645C203.509 493.281 209.941 493.281 215.147 491.583C225.668 488.15 233.916 479.869 237.334 469.306C239.026 464.079 239.026 457.621 239.026 444.705V51.4679C239.026 38.5516 239.026 32.0934 237.334 26.8669C233.916 16.3037 225.668 8.022 215.147 4.58981C209.941 2.8916 203.509 2.8916 190.645 2.8916H52.9894C40.125 2.8916 33.6928 2.8916 28.4873 4.58981C17.9666 8.022 9.71817 16.3037 6.29978 26.8669ZM62.7806 14.1682V16.7705L62.8217 16.7693L62.7804 17.0597C62.7804 23.9264 68.3245 29.4929 75.1636 29.4929H168.47C175.309 29.4929 180.853 23.9264 180.853 17.0597L180.812 16.7693L180.853 16.7705V14.1682C180.853 12.4117 182.271 10.9877 184.021 10.9877L191.439 10.9876C203.037 10.9876 208.835 10.9876 213.46 12.7422C220.729 15.5001 226.468 21.2615 229.214 28.5599C230.962 33.2034 230.962 39.0255 230.962 50.6698V445.503C230.962 457.147 230.962 462.969 229.214 467.613C226.468 474.911 220.729 480.672 213.46 483.43C208.835 485.185 203.037 485.185 191.439 485.185H52.1941C40.5966 485.185 34.7979 485.185 30.1731 483.43C22.904 480.672 17.1658 474.911 14.4191 467.613C12.6715 462.969 12.6715 457.147 12.6715 445.503V50.6698C12.6715 39.0255 12.6715 33.2034 14.4191 28.5599C17.1658 21.2615 22.904 15.5001 30.1731 12.7422C34.7979 10.9876 40.5966 10.9876 52.1942 10.9876L59.6128 10.9877C61.3623 10.9877 62.7806 12.4117 62.7806 14.1682Z" fill="#121515"/>
<rect x="190.645" width="3.45577" height="2.89145" fill="#414141"/>
<rect x="239.025" y="49.7329" width="2.87986" height="3.46973" fill="#414141"/>
<rect x="1.72852" y="49.7329" width="2.87982" height="3.46973" fill="#414141"/>
<rect x="1.72852" y="442.97" width="2.87982" height="3.46972" fill="#414141"/>
<rect x="239.025" y="442.97" width="2.87986" height="3.46972" fill="#414141"/>
<rect x="49.5332" y="493.281" width="3.45579" height="2.89144" fill="#414141"/>
<path fill-rule="evenodd" clip-rule="evenodd" d="M146.295 23.1315C148.84 23.1315 150.903 21.0603 150.903 18.5052C150.903 15.9502 148.84 13.8789 146.295 13.8789C143.75 13.8789 141.688 15.9502 141.688 18.5052C141.688 21.0603 143.75 23.1315 146.295 23.1315Z" fill="#262C2D"/>
<path fill-rule="evenodd" clip-rule="evenodd" d="M146.294 21.3967C147.884 21.3967 149.174 20.1021 149.174 18.5052C149.174 16.9083 147.884 15.6138 146.294 15.6138C144.703 15.6138 143.414 16.9083 143.414 18.5052C143.414 20.1021 144.703 21.3967 146.294 21.3967Z" fill="#121515"/>
<path opacity="0.4" fill-rule="evenodd" clip-rule="evenodd" d="M146.295 17.9276C146.613 17.9276 146.871 17.6686 146.871 17.3491C146.871 17.0295 146.613 16.7705 146.295 16.7705C145.977 16.7705 145.719 17.0295 145.719 17.3491C145.719 17.6686 145.977 17.9276 146.295 17.9276Z" fill="#636F73"/>
<path fill-rule="evenodd" clip-rule="evenodd" d="M107.705 18.5054C107.705 17.5472 108.482 16.7705 109.44 16.7705H134.192C135.151 16.7705 135.927 17.5472 135.927 18.5054C135.927 19.4635 135.151 20.2402 134.192 20.2402H109.44C108.482 20.2402 107.705 19.4635 107.705 18.5054Z" fill="#262C2D"/>
</svg>
