<svg width="16" height="17" viewBox="0 0 16 17" fill="none" xmlns="http://www.w3.org/2000/svg">
<path d="M2.16428 5.18118C2.22225 5.01937 2.31785 4.87198 2.445 4.75202C2.64919 4.55938 2.91932 4.4521 3.20005 4.45215H3.20014L12.8001 4.45215L12.8002 4.45215C13.081 4.4521 13.3511 4.55938 13.5553 4.75202C13.6824 4.87198 13.778 5.01937 13.836 5.18118L8.00014 8.09874L2.16428 5.18118Z" fill="#90A4AE" stroke="#90A4AE"/>
<path d="M14.3996 7.24658L7.99961 10.4466L1.59961 7.24658V11.9522C1.59961 12.3765 1.76818 12.7835 2.06824 13.0836C2.3683 13.3836 2.77526 13.5522 3.19961 13.5522H12.7996C13.224 13.5522 13.6309 13.3836 13.931 13.0836C14.231 12.7835 14.3996 12.3765 14.3996 11.9522V7.24658Z" fill="#6B7280"/>
</svg>
