<svg width="157" height="57" viewBox="0 0 157 57" fill="none" xmlns="http://www.w3.org/2000/svg">
<g clip-path="url(#clip0_3_660)">
<path d="M0.867188 26.9849C0.867188 43.6969 14.5242 56.6209 30.5382 56.6209C46.5502 56.6209 60.2092 43.6969 60.2092 26.9849C60.2092 11.6579 49.5412 0.484863 37.7272 0.484863C35.0412 0.484863 32.3982 1.06486 30.5382 1.82986C28.6772 1.06486 26.0312 0.484863 23.3502 0.484863C11.5332 0.484863 0.867188 11.6579 0.867188 26.9849ZM35.8242 19.2909C35.8242 22.5369 33.6812 25.0949 30.5392 25.0949C27.3992 25.0949 25.2542 22.5369 25.2542 19.2909C25.2542 14.8649 28.2622 10.9369 30.5392 9.58586C32.8172 10.9379 35.8242 14.8649 35.8242 19.2909ZM8.16219 26.8429C8.16219 15.3089 16.4852 7.42786 23.0262 7.72086C19.9262 10.8089 18.0482 15.3079 18.0482 19.6579C18.0482 27.1469 23.9902 32.3979 30.5382 32.3979C37.0832 32.3979 43.0292 27.1469 43.0292 19.6579C43.0292 15.3079 41.1512 10.8089 38.0512 7.72086C44.5922 7.42786 52.9162 15.3089 52.9162 26.8429C52.9162 39.4699 42.7842 49.3219 30.5392 49.3219C18.2932 49.3209 8.16219 39.4699 8.16219 26.8429Z" fill="#007BC2"/>
<path d="M87.7651 12.6572V18.5242H91.0421V29.3132L82.2401 12.6572H72.0811V18.5242H75.3571V36.4752H72.0811V42.3392H85.5171V36.4752H82.2401V25.6852L91.0421 42.3392H97.9251V18.5242H101.2V12.6572H87.7651Z" fill="#231F20"/>
<path d="M129.115 24.0568V12.6558H103.277V24.0568H109.143V18.5228H112.3V36.4738H108.015V42.3348H124.378V36.4738H120.092V18.5228H123.251V24.0568H129.115Z" fill="#231F20"/>
<path d="M156.955 24.0568V12.6558H131.12V24.0568H136.982V18.5228H140.14V36.4738H135.856V42.3348H152.215V36.4738H147.933V18.5228H151.089V24.0568H156.955Z" fill="#231F20"/>
</g>
<defs>
<clipPath id="clip0_3_660">
<rect width="156" height="57" fill="white" transform="translate(0.803711)"/>
</clipPath>
</defs>
</svg>
