<svg width="558" height="532" viewBox="0 0 558 532" fill="none" xmlns="http://www.w3.org/2000/svg">
<path d="M521.424 278.673C521.458 280.001 521.48 281.333 521.492 282.667L520.492 282.675C520.497 283.34 520.5 284.004 520.5 284.67C520.5 285.336 520.497 286 520.492 286.665L521.492 286.673C521.48 288.007 521.458 289.339 521.424 290.667L520.425 290.642C520.391 291.965 520.347 293.285 520.292 294.603L521.291 294.645C521.235 295.975 521.168 297.302 521.09 298.626L520.092 298.567C520.013 299.893 519.924 301.215 519.824 302.535L520.821 302.611C520.72 303.936 520.609 305.258 520.486 306.577L519.49 306.485C519.367 307.804 519.234 309.121 519.089 310.434L520.083 310.543C519.937 311.868 519.78 313.19 519.611 314.508L518.619 314.382C518.452 315.694 518.274 317.004 518.084 318.309L519.074 318.453C518.883 319.77 518.681 321.084 518.468 322.394L517.481 322.234C517.269 323.543 517.045 324.849 516.81 326.151L517.795 326.329C517.559 327.636 517.313 328.94 517.056 330.24L516.075 330.046C515.817 331.347 515.549 332.643 515.27 333.936L516.248 334.147C515.967 335.448 515.675 336.746 515.373 338.04L514.399 337.812C514.098 339.1 513.786 340.384 513.464 341.664L514.433 341.908C514.108 343.2 513.772 344.486 513.425 345.769L512.46 345.508C512.114 346.788 511.757 348.063 511.39 349.333L512.351 349.611C511.982 350.887 511.603 352.159 511.213 353.426L510.257 353.132C509.867 354.399 509.466 355.662 509.056 356.92L510.006 357.23C509.593 358.495 509.169 359.755 508.735 361.01L507.79 360.684C507.358 361.933 506.916 363.178 506.463 364.418L507.402 364.761C506.945 366.013 506.478 367.259 506 368.5L505.067 368.141C504.592 369.377 504.106 370.608 503.61 371.833L504.537 372.208C504.038 373.44 503.53 374.666 503.011 375.887L502.091 375.496C501.573 376.716 501.044 377.931 500.506 379.141L501.419 379.547C500.878 380.762 500.327 381.971 499.767 383.175L498.86 382.753C498.301 383.952 497.732 385.146 497.154 386.334L498.053 386.772C497.47 387.969 496.877 389.16 496.275 390.345L495.384 389.891C494.784 391.071 494.174 392.245 493.555 393.414L494.438 393.882C493.816 395.056 493.183 396.225 492.541 397.388L491.666 396.904C491.026 398.064 490.376 399.217 489.716 400.365L490.583 400.863C489.921 402.015 489.249 403.161 488.568 404.301L487.709 403.788C487.03 404.925 486.341 406.055 485.643 407.178L486.493 407.706C485.791 408.836 485.08 409.959 484.359 411.076L483.519 410.534C482.802 411.646 482.075 412.751 481.34 413.85L482.171 414.406C481.431 415.511 480.682 416.61 479.924 417.701L479.102 417.131C478.347 418.218 477.583 419.299 476.81 420.373L477.621 420.957C476.845 422.035 476.06 423.107 475.265 424.171L474.464 423.573C473.672 424.635 472.871 425.689 472.062 426.736L472.853 427.348C472.04 428.399 471.218 429.444 470.388 430.481L469.607 429.856C468.78 430.889 467.945 431.915 467.101 432.934L467.87 433.572C467.022 434.596 466.165 435.612 465.3 436.621L464.541 435.97C463.679 436.974 462.809 437.971 461.93 438.961L462.678 439.625C461.796 440.619 460.905 441.605 460.006 442.584L459.27 441.907C458.374 442.882 457.471 443.849 456.559 444.808L457.284 445.497C456.369 446.461 455.445 447.416 454.513 448.364L453.8 447.663C452.872 448.606 451.936 449.542 450.993 450.47L451.694 451.183C450.746 452.115 449.791 453.039 448.827 453.954L448.138 453.229C447.179 454.141 446.212 455.044 445.237 455.94L445.914 456.676C444.935 457.575 443.949 458.466 442.955 459.348L442.291 458.6C441.301 459.479 440.304 460.349 439.3 461.211L439.951 461.97C438.942 462.835 437.926 463.692 436.902 464.54L436.264 463.771C435.245 464.615 434.219 465.45 433.186 466.277L433.811 467.058C432.774 467.888 431.729 468.71 430.678 469.523L430.066 468.732C429.019 469.541 427.965 470.342 426.903 471.134L427.501 471.935C426.437 472.73 425.365 473.515 424.287 474.291L423.703 473.48C422.629 474.253 421.548 475.017 420.461 475.772L421.031 476.594C419.94 477.352 418.841 478.101 417.736 478.841L417.18 478.01C416.081 478.745 414.976 479.472 413.864 480.189L414.406 481.029C413.289 481.75 412.166 482.461 411.036 483.163L410.508 482.313C409.385 483.011 408.255 483.7 407.118 484.379L407.631 485.237C406.491 485.919 405.345 486.591 404.193 487.253L403.695 486.386C402.547 487.046 401.394 487.695 400.234 488.336L400.718 489.211C399.555 489.853 398.387 490.486 397.212 491.108L396.744 490.225C395.575 490.844 394.401 491.454 393.221 492.054L393.675 492.945C392.49 493.547 391.299 494.14 390.102 494.723L389.664 493.824C388.476 494.402 387.282 494.971 386.083 495.53L386.505 496.437C385.301 496.997 384.092 497.548 382.877 498.089L382.471 497.176C381.261 497.714 380.046 498.242 378.826 498.761L379.217 499.681C377.996 500.2 376.77 500.708 375.538 501.207L375.163 500.28C373.938 500.776 372.707 501.262 371.471 501.737L371.83 502.67C370.589 503.148 369.343 503.615 368.091 504.072L367.748 503.133C366.508 503.586 365.263 504.028 364.014 504.46L364.34 505.405C363.085 505.839 361.825 506.263 360.56 506.676L360.25 505.726C358.992 506.136 357.729 506.537 356.462 506.927L356.756 507.883C355.489 508.273 354.217 508.652 352.941 509.021L352.663 508.06C351.393 508.427 350.118 508.784 348.838 509.13L349.099 510.095C347.816 510.442 346.53 510.778 345.238 511.103L344.994 510.134C343.714 510.456 342.43 510.768 341.142 511.069L341.37 512.043C340.076 512.345 338.779 512.637 337.477 512.918L337.266 511.94C335.973 512.219 334.677 512.487 333.376 512.745L333.57 513.726C332.27 513.983 330.966 514.229 329.659 514.465L329.481 513.48C328.179 513.715 326.873 513.939 325.564 514.151L325.724 515.138C324.414 515.351 323.1 515.553 321.783 515.744L321.639 514.754C320.334 514.944 319.025 515.122 317.712 515.289L317.838 516.281C316.52 516.45 315.198 516.607 313.873 516.753L313.764 515.759C312.451 515.904 311.134 516.037 309.815 516.16L309.907 517.156C308.588 517.279 307.266 517.39 305.941 517.491L305.865 516.494C304.545 516.594 303.223 516.683 301.897 516.762L301.956 517.76C300.632 517.838 299.305 517.905 297.975 517.961L297.933 516.962C296.615 517.017 295.295 517.061 293.972 517.095L293.997 518.094C292.669 518.128 291.337 518.15 290.003 518.162L289.995 517.162C289.33 517.167 288.666 517.17 288 517.17C287.334 517.17 286.67 517.167 286.005 517.162L285.997 518.162C284.663 518.15 283.331 518.128 282.003 518.094L282.028 517.095C280.705 517.061 279.385 517.017 278.067 516.962L278.025 517.961C276.695 517.905 275.368 517.838 274.044 517.76L274.103 516.762C272.777 516.683 271.455 516.594 270.135 516.494L270.059 517.491C268.734 517.39 267.412 517.279 266.093 517.156L266.185 516.16C264.866 516.037 263.549 515.904 262.236 515.759L262.127 516.753C260.802 516.607 259.48 516.45 258.162 516.281L258.288 515.289C256.975 515.122 255.666 514.944 254.361 514.754L254.217 515.744C252.9 515.553 251.586 515.351 250.276 515.138L250.436 514.151C249.127 513.939 247.821 513.715 246.519 513.48L246.341 514.465C245.034 514.229 243.73 513.983 242.43 513.726L242.624 512.745C241.323 512.487 240.027 512.219 238.734 511.94L238.523 512.918C237.222 512.637 235.924 512.345 234.63 512.043L234.858 511.069C233.57 510.768 232.286 510.456 231.006 510.134L230.762 511.103C229.47 510.778 228.184 510.442 226.901 510.095L227.162 509.13C225.882 508.784 224.607 508.427 223.337 508.06L223.059 509.021C221.783 508.652 220.511 508.273 219.244 507.883L219.538 506.927C218.271 506.537 217.008 506.136 215.75 505.726L215.44 506.676C214.175 506.263 212.915 505.839 211.66 505.405L211.986 504.46C210.737 504.028 209.492 503.586 208.252 503.133L207.909 504.072C206.657 503.615 205.411 503.148 204.17 502.67L204.529 501.737C203.293 501.262 202.062 500.776 200.837 500.28L200.462 501.207C199.23 500.708 198.004 500.2 196.783 499.681L197.174 498.761C195.954 498.242 194.739 497.714 193.529 497.176L193.123 498.089C191.908 497.548 190.699 496.997 189.495 496.437L189.917 495.53C188.718 494.971 187.524 494.402 186.336 493.824L185.898 494.723C184.701 494.14 183.51 493.547 182.325 492.945L182.779 492.054C181.599 491.454 180.425 490.844 179.256 490.225L178.788 491.108C177.614 490.486 176.445 489.853 175.282 489.211L175.766 488.336C174.606 487.695 173.453 487.046 172.305 486.386L171.807 487.253C170.655 486.591 169.509 485.919 168.369 485.237L168.882 484.379C167.745 483.7 166.615 483.011 165.492 482.313L164.964 483.163C163.834 482.461 162.711 481.75 161.594 481.029L162.136 480.189C161.024 479.472 159.919 478.745 158.82 478.01L158.264 478.841C157.159 478.101 156.06 477.352 154.969 476.594L155.539 475.772C154.452 475.017 153.371 474.253 152.297 473.48L151.713 474.291C150.635 473.515 149.563 472.73 148.499 471.935L149.097 471.134C148.035 470.342 146.981 469.541 145.934 468.732L145.322 469.523C144.271 468.71 143.226 467.888 142.189 467.058L142.814 466.277C141.781 465.45 140.755 464.615 139.736 463.771L139.098 464.54C138.074 463.692 137.058 462.835 136.049 461.97L136.7 461.211C135.696 460.349 134.699 459.479 133.709 458.6L133.045 459.348C132.051 458.466 131.065 457.575 130.086 456.676L130.763 455.94C129.788 455.044 128.821 454.141 127.862 453.229L127.173 453.954C126.209 453.039 125.254 452.115 124.306 451.183L125.007 450.47C124.064 449.542 123.128 448.606 122.2 447.663L121.487 448.364C120.555 447.416 119.631 446.461 118.716 445.497L119.441 444.808C118.529 443.849 117.626 442.882 116.73 441.907L115.994 442.584C115.095 441.605 114.204 440.619 113.322 439.625L114.07 438.961C113.191 437.971 112.321 436.974 111.459 435.97L110.7 436.621C109.835 435.612 108.978 434.596 108.13 433.572L108.899 432.934C108.055 431.915 107.22 430.889 106.393 429.856L105.612 430.481C104.782 429.444 103.96 428.399 103.147 427.348L103.938 426.736C103.129 425.689 102.328 424.635 101.536 423.573L100.735 424.171C99.9404 423.107 99.155 422.035 98.3786 420.957L99.1901 420.373C98.417 419.299 97.6528 418.218 96.8977 417.131L96.0763 417.701C95.3182 416.61 94.5693 415.511 93.8295 414.406L94.6604 413.85C93.9248 412.751 93.1983 411.646 92.481 410.534L91.6407 411.076C90.9203 409.959 90.2092 408.836 89.5075 407.706L90.3569 407.178C89.6589 406.055 88.9701 404.925 88.2908 403.788L87.4325 404.301C86.7512 403.161 86.0793 402.015 85.417 400.863L86.2839 400.365C85.6245 399.217 84.9745 398.064 84.3341 396.904L83.4587 397.388C82.8167 396.225 82.1843 395.056 81.5616 393.882L82.4451 393.414C81.8258 392.245 81.2162 391.071 80.6164 389.891L79.725 390.345C79.1225 389.16 78.5299 387.969 77.9472 386.772L78.8463 386.334C78.2676 385.146 77.6988 383.952 77.1399 382.753L76.2334 383.175C75.6726 381.971 75.1217 380.762 74.5809 379.547L75.4944 379.141C74.9559 377.931 74.4275 376.716 73.9091 375.496L72.9887 375.887C72.4701 374.666 71.9616 373.44 71.4633 372.208L72.3902 371.833C71.8942 370.608 71.4084 369.377 70.9328 368.141L69.9995 368.5C69.522 367.259 69.0547 366.013 68.5979 364.761L69.5372 364.418C69.0844 363.178 68.6419 361.933 68.2097 360.684L67.2646 361.01C66.8306 359.755 66.407 358.495 65.9939 357.23L66.9444 356.92C66.5335 355.662 66.133 354.399 65.7431 353.132L64.7873 353.426C64.3975 352.159 64.0181 350.887 63.6494 349.611L64.6101 349.333C64.243 348.063 63.8864 346.788 63.5404 345.508L62.5751 345.769C62.2283 344.486 61.8922 343.2 61.5668 341.908L62.5365 341.664C62.214 340.384 61.9021 339.1 61.6009 337.812L60.6272 338.04C60.3247 336.746 60.033 335.448 59.7522 334.147L60.7297 333.936C60.4508 332.643 60.1827 331.347 59.9254 330.046L58.9444 330.24C58.6873 328.94 58.4409 327.636 58.2054 326.329L59.1895 326.151C58.955 324.849 58.7314 323.543 58.5187 322.234L57.5316 322.394C57.3188 321.084 57.1169 319.77 56.9259 318.453L57.9156 318.309C57.7264 317.004 57.548 315.694 57.3806 314.382L56.3886 314.508C56.2205 313.19 56.0633 311.868 55.9173 310.543L56.9112 310.434C56.7665 309.121 56.6327 307.804 56.5099 306.485L55.5142 306.577C55.3914 305.258 55.2797 303.936 55.179 302.611L56.1761 302.535C56.0758 301.215 55.9866 299.893 55.9084 298.567L54.9102 298.626C54.8321 297.302 54.7651 295.975 54.7092 294.645L55.7083 294.603C55.653 293.285 55.6086 291.965 55.5752 290.642L54.5755 290.667C54.542 289.339 54.5196 288.007 54.5084 286.673L55.5084 286.665C55.5028 286 55.5 285.336 55.5 284.67C55.5 284.004 55.5028 283.34 55.5084 282.675L54.5084 282.667C54.5196 281.333 54.542 280.001 54.5755 278.673L55.5752 278.698C55.6086 277.375 55.653 276.055 55.7083 274.737L54.7092 274.695C54.7651 273.365 54.8321 272.038 54.9102 270.714L55.9084 270.773C55.9866 269.447 56.0758 268.125 56.1761 266.805L55.179 266.729C55.2797 265.404 55.3914 264.082 55.5142 262.763L56.5099 262.855C56.6327 261.536 56.7665 260.219 56.9112 258.906L55.9173 258.797C56.0633 257.472 56.2205 256.15 56.3886 254.832L57.3806 254.958C57.548 253.645 57.7264 252.336 57.9156 251.031L56.9259 250.887C57.1169 249.57 57.3188 248.256 57.5316 246.946L58.5187 247.106C58.7314 245.797 58.955 244.491 59.1895 243.189L58.2054 243.011C58.4409 241.704 58.6873 240.4 58.9444 239.1L59.9254 239.294C60.1827 237.993 60.4508 236.697 60.7297 235.404L59.7522 235.193C60.033 233.892 60.3247 232.594 60.6272 231.3L61.6009 231.528C61.9021 230.24 62.214 228.956 62.5365 227.676L61.5668 227.432C61.8922 226.14 62.2283 224.853 62.5751 223.571L63.5404 223.832C63.8864 222.552 64.243 221.277 64.6101 220.007L63.6494 219.729C64.0181 218.453 64.3975 217.181 64.7873 215.914L65.7431 216.208C66.133 214.941 66.5335 213.678 66.9444 212.42L65.9939 212.11C66.407 210.845 66.8306 209.585 67.2646 208.33L68.2097 208.656C68.6419 207.407 69.0844 206.162 69.5372 204.922L68.5979 204.579C69.0547 203.327 69.522 202.081 69.9995 200.84L70.9328 201.199C71.4084 199.963 71.8942 198.732 72.3902 197.507L71.4633 197.132C71.9616 195.9 72.4701 194.674 72.9887 193.453L73.9091 193.844C74.4275 192.624 74.956 191.409 75.4944 190.199L74.5809 189.793C75.1217 188.578 75.6726 187.369 76.2334 186.165L77.1399 186.587C77.6988 185.388 78.2676 184.194 78.8463 183.006L77.9472 182.568C78.5299 181.371 79.1225 180.18 79.725 178.995L80.6164 179.449C81.2162 178.269 81.8258 177.095 82.4451 175.926L81.5616 175.458C82.1843 174.283 82.8167 173.115 83.4587 171.952L84.3341 172.436C84.9745 171.276 85.6245 170.123 86.2839 168.975L85.417 168.477C86.0793 167.325 86.7512 166.179 87.4325 165.039L88.2908 165.552C88.9701 164.415 89.6589 163.285 90.3569 162.161L89.5075 161.634C90.2092 160.504 90.9203 159.381 91.6407 158.264L92.481 158.806C93.1983 157.694 93.9248 156.589 94.6604 155.49L93.8295 154.934C94.5693 153.829 95.3182 152.73 96.0763 151.639L96.8977 152.209C97.6528 151.122 98.417 150.041 99.1901 148.967L98.3786 148.383C99.155 147.305 99.9404 146.233 100.735 145.169L101.536 145.767C102.328 144.705 103.129 143.651 103.938 142.604L103.147 141.992C103.96 140.941 104.782 139.896 105.612 138.859L106.393 139.484C107.22 138.451 108.055 137.425 108.899 136.406L108.13 135.768C108.978 134.744 109.835 133.728 110.7 132.719L111.459 133.37C112.321 132.366 113.191 131.369 114.07 130.379L113.322 129.715C114.204 128.721 115.095 127.735 115.994 126.756L116.73 127.433C117.626 126.458 118.529 125.491 119.441 124.532L118.716 123.843C119.631 122.879 120.555 121.924 121.487 120.976L122.2 121.677C123.128 120.734 124.064 119.798 125.007 118.87L124.306 118.157C125.254 117.225 126.209 116.301 127.173 115.386L127.862 116.111C128.821 115.199 129.788 114.295 130.763 113.4L130.086 112.664C131.065 111.765 132.051 110.874 133.045 109.992L133.709 110.74C134.699 109.861 135.696 108.991 136.7 108.129L136.049 107.37C137.058 106.505 138.074 105.648 139.098 104.8L139.736 105.569C140.755 104.725 141.781 103.89 142.814 103.063L142.189 102.282C143.226 101.452 144.271 100.63 145.322 99.817L145.934 100.608C146.981 99.7987 148.035 98.998 149.097 98.2062L148.499 97.4047C149.563 96.6104 150.635 95.825 151.713 95.0486L152.297 95.8601C153.371 95.087 154.452 94.3228 155.539 93.5676L154.969 92.7463C156.06 91.9882 157.159 91.2393 158.264 90.4995L158.82 91.3304C159.919 90.5948 161.024 89.8683 162.136 89.151L161.594 88.3106C162.711 87.5903 163.834 86.8792 164.964 86.1774L165.492 87.0269C166.615 86.3288 167.745 85.6401 168.882 84.9608L168.369 84.1025C169.509 83.4212 170.655 82.7493 171.807 82.0869L172.305 82.9539C173.453 82.2944 174.606 81.6445 175.766 81.0041L175.282 80.1287C176.445 79.4867 177.614 78.8543 178.788 78.2316L179.256 79.1151C180.425 78.4958 181.599 77.8862 182.779 77.2864L182.325 76.395C183.51 75.7925 184.701 75.1999 185.898 74.6172L186.336 75.5163C187.524 74.9376 188.718 74.3688 189.917 73.8099L189.495 72.9034C190.699 72.3426 191.908 71.7917 193.123 71.2509L193.529 72.1644C194.739 71.6259 195.954 71.0975 197.174 70.5791L196.783 69.6587C198.004 69.1401 199.23 68.6316 200.462 68.1332L200.837 69.0602C202.062 68.5642 203.293 68.0784 204.529 67.6028L204.17 66.6695C205.411 66.1919 206.657 65.7247 207.909 65.2679L208.252 66.2072C209.492 65.7544 210.737 65.3119 211.986 64.8797L211.66 63.9346C212.915 63.5006 214.175 63.077 215.44 62.6638L215.75 63.6144C217.008 63.2035 218.271 62.803 219.538 62.4131L219.244 61.4573C220.511 61.0674 221.783 60.6881 223.059 60.3194L223.337 61.2801C224.607 60.9129 225.882 60.5564 227.162 60.2104L226.901 59.2451C228.184 58.8983 229.47 58.5621 230.762 58.2368L231.006 59.2064C232.286 58.884 233.57 58.5721 234.858 58.2709L234.63 57.2972C235.924 56.9947 237.222 56.703 238.523 56.4221L238.734 57.3997C240.027 57.1208 241.323 56.8527 242.624 56.5954L242.43 55.6144C243.73 55.3572 245.034 55.1108 246.341 54.8753L246.519 55.8595C247.821 55.625 249.127 55.4014 250.436 55.1886L250.276 54.2016C251.586 53.9888 252.9 53.7868 254.217 53.5959L254.361 54.5856C255.666 54.3964 256.975 54.218 258.288 54.0506L258.162 53.0586C259.48 52.8905 260.802 52.7333 262.127 52.5872L262.236 53.5812C263.549 53.4365 264.866 53.3026 266.185 53.1798L266.093 52.1841C267.412 52.0614 268.734 51.9497 270.059 51.849L270.135 52.8461C271.455 52.7458 272.777 52.6566 274.103 52.5784L274.044 51.5802C275.368 51.5021 276.695 51.4351 278.025 51.3792L278.067 52.3783C279.385 52.3229 280.705 52.2785 282.028 52.2452L282.003 51.2455C283.331 51.212 284.663 51.1896 285.997 51.1784L286.005 52.1784C286.67 52.1728 287.334 52.17 288 52.17C288.666 52.17 289.33 52.1728 289.995 52.1784L290.003 51.1784C291.337 51.1896 292.669 51.212 293.997 51.2455L293.972 52.2452C295.295 52.2785 296.615 52.3229 297.933 52.3783L297.975 51.3792C299.305 51.4351 300.632 51.5021 301.956 51.5802L301.897 52.5784C303.223 52.6566 304.545 52.7458 305.865 52.8461L305.941 51.849C307.266 51.9497 308.588 52.0614 309.907 52.1841L309.815 53.1798C311.134 53.3026 312.451 53.4365 313.764 53.5812L313.873 52.5872C315.198 52.7333 316.52 52.8905 317.838 53.0586L317.712 54.0506C319.025 54.218 320.334 54.3964 321.639 54.5856L321.783 53.5959C323.1 53.7868 324.414 53.9888 325.724 54.2016L325.564 55.1886C326.873 55.4014 328.179 55.625 329.481 55.8595L329.659 54.8753C330.966 55.1108 332.27 55.3572 333.57 55.6144L333.376 56.5954C334.677 56.8527 335.973 57.1208 337.266 57.3996L337.477 56.4221C338.778 56.703 340.076 56.9947 341.37 57.2972L341.142 58.2709C342.43 58.5721 343.714 58.884 344.994 59.2064L345.238 58.2368C346.53 58.5621 347.816 58.8983 349.099 59.2451L348.838 60.2104C350.118 60.5563 351.393 60.9129 352.663 61.2801L352.941 60.3194C354.217 60.6881 355.489 61.0674 356.756 61.4573L356.462 62.4131C357.729 62.803 358.992 63.2035 360.25 63.6144L360.56 62.6638C361.825 63.077 363.085 63.5006 364.34 63.9346L364.014 64.8797C365.263 65.3119 366.508 65.7544 367.748 66.2072L368.091 65.2679C369.343 65.7247 370.589 66.1919 371.83 66.6695L371.471 67.6028C372.707 68.0784 373.938 68.5642 375.163 69.0602L375.538 68.1332C376.77 68.6316 377.996 69.1401 379.217 69.6587L378.826 70.5791C380.046 71.0975 381.261 71.6259 382.471 72.1644L382.877 71.2509C384.092 71.7917 385.301 72.3426 386.505 72.9034L386.083 73.8099C387.282 74.3688 388.476 74.9376 389.664 75.5163L390.102 74.6172C391.299 75.1999 392.49 75.7925 393.675 76.3949L393.221 77.2864C394.401 77.8862 395.575 78.4958 396.744 79.1151L397.212 78.2316C398.387 78.8543 399.555 79.4867 400.718 80.1287L400.234 81.0041C401.394 81.6445 402.547 82.2944 403.695 82.9539L404.193 82.0869C405.345 82.7493 406.491 83.4212 407.631 84.1025L407.118 84.9608C408.255 85.6401 409.385 86.3288 410.508 87.0269L411.036 86.1774C412.166 86.8792 413.289 87.5903 414.406 88.3106L413.864 89.151C414.976 89.8683 416.081 90.5948 417.18 91.3304L417.736 90.4995C418.841 91.2393 419.94 91.9882 421.031 92.7463L420.461 93.5676C421.548 94.3228 422.629 95.087 423.703 95.8601L424.287 95.0486C425.365 95.825 426.437 96.6104 427.501 97.4047L426.903 98.2062C427.965 98.998 429.019 99.7987 430.066 100.608L430.678 99.817C431.729 100.63 432.774 101.452 433.811 102.282L433.186 103.063C434.219 103.89 435.245 104.725 436.264 105.569L436.902 104.8C437.926 105.648 438.942 106.505 439.951 107.37L439.3 108.129C440.304 108.991 441.301 109.861 442.291 110.74L442.955 109.992C443.949 110.874 444.935 111.765 445.914 112.664L445.237 113.4C446.212 114.295 447.179 115.199 448.138 116.111L448.827 115.386C449.791 116.301 450.746 117.225 451.694 118.157L450.993 118.87C451.936 119.798 452.872 120.734 453.8 121.677L454.513 120.976C455.445 121.924 456.369 122.879 457.284 123.843L456.559 124.532C457.471 125.491 458.374 126.458 459.27 127.433L460.006 126.756C460.905 127.735 461.796 128.721 462.678 129.715L461.93 130.379C462.809 131.369 463.679 132.366 464.541 133.37L465.3 132.719C466.165 133.728 467.022 134.744 467.87 135.768L467.101 136.406C467.945 137.425 468.78 138.451 469.607 139.484L470.388 138.859C471.218 139.896 472.04 140.941 472.853 141.992L472.062 142.604C472.871 143.651 473.672 144.705 474.464 145.767L475.265 145.169C476.06 146.233 476.845 147.305 477.621 148.383L476.81 148.967C477.583 150.041 478.347 151.122 479.102 152.209L479.924 151.639C480.682 152.73 481.431 153.829 482.171 154.934L481.34 155.49C482.075 156.589 482.802 157.694 483.519 158.806L484.359 158.264C485.08 159.381 485.791 160.504 486.493 161.634L485.643 162.161C486.341 163.285 487.03 164.415 487.709 165.552L488.568 165.039C489.249 166.179 489.921 167.325 490.583 168.477L489.716 168.975C490.376 170.123 491.026 171.276 491.666 172.436L492.541 171.952C493.183 173.115 493.816 174.283 494.438 175.458L493.555 175.926C494.174 177.095 494.784 178.269 495.384 179.449L496.275 178.995C496.877 180.18 497.47 181.371 498.053 182.568L497.154 183.006C497.732 184.194 498.301 185.388 498.86 186.587L499.767 186.165C500.327 187.369 500.878 188.578 501.419 189.793L500.506 190.199C501.044 191.409 501.573 192.624 502.091 193.844L503.011 193.453C503.53 194.674 504.038 195.9 504.537 197.132L503.61 197.507C504.106 198.732 504.592 199.963 505.067 201.199L506 200.84C506.478 202.081 506.945 203.327 507.402 204.579L506.463 204.922C506.916 206.162 507.358 207.407 507.79 208.656L508.735 208.33C509.169 209.585 509.593 210.845 510.006 212.11L509.056 212.42C509.466 213.678 509.867 214.941 510.257 216.208L511.213 215.914C511.603 217.181 511.982 218.453 512.351 219.729L511.39 220.007C511.757 221.277 512.114 222.552 512.46 223.832L513.425 223.571C513.772 224.853 514.108 226.14 514.433 227.432L513.464 227.676C513.786 228.956 514.098 230.24 514.399 231.528L515.373 231.3C515.675 232.594 515.967 233.892 516.248 235.193L515.27 235.404C515.549 236.697 515.817 237.993 516.075 239.294L517.056 239.1C517.313 240.4 517.559 241.704 517.795 243.011L516.81 243.189C517.045 244.491 517.269 245.797 517.481 247.106L518.468 246.946C518.681 248.256 518.883 249.57 519.074 250.887L518.084 251.031C518.274 252.336 518.452 253.645 518.619 254.958L519.611 254.832C519.78 256.15 519.937 257.472 520.083 258.797L519.089 258.906C519.234 260.219 519.367 261.536 519.49 262.855L520.486 262.763C520.609 264.082 520.72 265.404 520.821 266.729L519.824 266.805C519.924 268.125 520.013 269.447 520.092 270.773L521.09 270.714C521.168 272.038 521.235 273.365 521.291 274.695L520.292 274.737C520.347 276.055 520.391 277.375 520.425 278.698L521.424 278.673Z" stroke="#CECECE" stroke-width="2" stroke-dasharray="4 4"/>
<g filter="url(#filter0_dd_473_163)">
<rect x="450.5" y="122.17" width="52" height="51" rx="25.5" fill="#F8FAFC"/>
</g>
<g filter="url(#filter1_d_473_163)">
<g filter="url(#filter2_d_473_163)">
<path fill-rule="evenodd" clip-rule="evenodd" d="M469.25 134.17C468.007 134.17 467 135.334 467 136.77V151.07C467 152.506 468.007 153.67 469.25 153.67H477.125V157.57H473.469C472.847 157.57 472.344 158.152 472.344 158.87C472.344 159.588 472.847 160.17 473.469 160.17H483.031C483.653 160.17 484.156 159.588 484.156 158.87C484.156 158.152 483.653 157.57 483.031 157.57H479.375V153.67H487.25C488.493 153.67 489.5 152.506 489.5 151.07V136.77C489.5 135.334 488.493 134.17 487.25 134.17H469.25Z" fill="url(#paint0_linear_473_163)"/>
</g>
<g filter="url(#filter3_dd_473_163)">
<path d="M462.5 139.37C462.5 137.934 463.507 136.77 464.75 136.77H482.75C483.993 136.77 485 137.934 485 139.37V152.37C485 153.806 483.993 154.97 482.75 154.97H464.75C463.507 154.97 462.5 153.806 462.5 152.37V139.37Z" fill="white" fill-opacity="0.4"/>
</g>
<g filter="url(#filter4_dd_473_163)">
<path d="M464.75 143.92C464.75 143.561 465.002 143.27 465.312 143.27H477.688C477.998 143.27 478.25 143.561 478.25 143.92V145.22C478.25 145.579 477.998 145.87 477.688 145.87H465.312C465.002 145.87 464.75 145.579 464.75 145.22V143.92Z" fill="white" fill-opacity="0.6"/>
</g>
<g filter="url(#filter5_dd_473_163)">
<path d="M464.75 147.82C464.75 147.461 465.002 147.17 465.312 147.17H470.938C471.248 147.17 471.5 147.461 471.5 147.82V149.12C471.5 149.479 471.248 149.77 470.938 149.77H465.312C465.002 149.77 464.75 149.479 464.75 149.12V147.82Z" fill="white" fill-opacity="0.6"/>
</g>
<g filter="url(#filter6_dd_473_163)">
<path d="M464.75 140.02C464.75 139.661 465.002 139.37 465.312 139.37H482.188C482.498 139.37 482.75 139.661 482.75 140.02V141.32C482.75 141.679 482.498 141.97 482.188 141.97H465.312C465.002 141.97 464.75 141.679 464.75 141.32V140.02Z" fill="white" fill-opacity="0.6"/>
</g>
</g>
<g filter="url(#filter7_dd_473_163)">
<rect x="35.5" y="299.17" width="52" height="51" rx="25.5" fill="#F8FAFC"/>
</g>
<g filter="url(#filter8_d_473_163)">
<g filter="url(#filter9_d_473_163)">
<path d="M50.2 313.337C50.2 312.14 51.4088 311.17 52.9 311.17C54.3912 311.17 55.6 312.14 55.6 313.337V335.003C55.6 336.2 54.3912 337.17 52.9 337.17C51.4088 337.17 50.2 336.2 50.2 335.003V313.337Z" fill="url(#paint1_linear_473_163)"/>
</g>
<g filter="url(#filter10_d_473_163)">
<path d="M66.4 313.337C66.4 312.14 67.6088 311.17 69.1 311.17C70.5912 311.17 71.8 312.14 71.8 313.337V335.003C71.8 336.2 70.5912 337.17 69.1 337.17C67.6088 337.17 66.4 336.2 66.4 335.003V313.337Z" fill="url(#paint2_linear_473_163)"/>
</g>
<g filter="url(#filter11_dd_473_163)">
<path d="M58.3 319.837C58.3 322.23 55.8824 324.17 52.9 324.17C49.9176 324.17 47.5 322.23 47.5 319.837C47.5 317.443 49.9176 315.503 52.9 315.503C55.8824 315.503 58.3 317.443 58.3 319.837Z" fill="white" fill-opacity="0.4"/>
</g>
<g filter="url(#filter12_d_473_163)">
<path d="M56.9501 319.837C56.9501 321.632 55.1368 323.087 52.9001 323.087C50.6634 323.087 48.8501 321.632 48.8501 319.837C48.8501 318.042 50.6634 316.587 52.9001 316.587C55.1368 316.587 56.9501 318.042 56.9501 319.837Z" fill="url(#paint3_linear_473_163)"/>
</g>
<g filter="url(#filter13_dd_473_163)">
<path d="M74.5 328.503C74.5 330.897 72.0823 332.837 69.1 332.837C66.1176 332.837 63.7 330.897 63.7 328.503C63.7 326.11 66.1176 324.17 69.1 324.17C72.0823 324.17 74.5 326.11 74.5 328.503Z" fill="white" fill-opacity="0.4"/>
</g>
<g filter="url(#filter14_d_473_163)">
<path d="M73.15 328.503C73.15 330.298 71.3368 331.753 69.1 331.753C66.8633 331.753 65.05 330.298 65.05 328.503C65.05 326.708 66.8633 325.253 69.1 325.253C71.3368 325.253 73.15 326.708 73.15 328.503Z" fill="url(#paint4_linear_473_163)"/>
</g>
<g filter="url(#filter15_dd_473_163)">
<path d="M55.2626 319.837C55.2626 320.884 54.2049 321.732 52.9001 321.732C51.5953 321.732 50.5376 320.884 50.5376 319.837C50.5376 318.79 51.5953 317.941 52.9001 317.941C54.2049 317.941 55.2626 318.79 55.2626 319.837Z" fill="white" fill-opacity="0.6"/>
</g>
<g filter="url(#filter16_dd_473_163)">
<path d="M71.4625 328.503C71.4625 329.55 70.4048 330.399 69.1 330.399C67.7953 330.399 66.7375 329.55 66.7375 328.503C66.7375 327.456 67.7953 326.607 69.1 326.607C70.4048 326.607 71.4625 327.456 71.4625 328.503Z" fill="white" fill-opacity="0.6"/>
</g>
</g>
<g filter="url(#filter17_dd_473_163)">
<rect x="192.5" y="35.17" width="52" height="51" rx="25.5" fill="#F8FAFC"/>
</g>
<g filter="url(#filter18_d_473_163)">
<g filter="url(#filter19_d_473_163)">
<path d="M231.493 51.9206C229.734 62.852 224.306 67.6424 220.414 68.7962C220.314 68.8261 220.209 68.8261 220.108 68.7962C216.217 67.6424 210.789 62.852 209.03 51.9206C208.985 51.6464 209.164 51.382 209.443 51.3107C210.488 51.0435 212.977 50.3881 214.608 49.8023C216.588 49.0911 219.127 47.715 219.973 47.2447C220.152 47.1451 220.371 47.1451 220.55 47.2447C221.396 47.715 223.935 49.0911 225.915 49.8023C227.546 50.3881 230.035 51.0435 231.079 51.3107C231.358 51.382 231.537 51.6464 231.493 51.9206Z" fill="url(#paint5_linear_473_163)"/>
</g>
<g filter="url(#filter20_dd_473_163)">
<path fill-rule="evenodd" clip-rule="evenodd" d="M215.892 73.1475C219.783 71.9939 225.211 67.2034 226.97 56.272C227.015 55.9978 226.836 55.7334 226.557 55.6621C225.512 55.395 223.023 54.7395 221.392 54.1537C219.412 53.4425 216.873 52.0664 216.027 51.5962C215.848 51.4965 215.629 51.4965 215.45 51.5962C214.604 52.0664 212.065 53.4425 210.085 54.1537C208.454 54.7395 205.965 55.395 204.92 55.6621C204.642 55.7334 204.463 55.9978 204.507 56.272C206.266 67.2034 211.694 71.9939 215.586 73.1475C215.686 73.1774 215.791 73.1774 215.892 73.1475ZM220.77 60.9136C221.216 60.4929 221.223 59.8042 220.786 59.3752C220.349 58.9463 219.633 58.9396 219.187 59.3603L215.079 63.2366L213.421 61.672C212.975 61.2513 212.259 61.258 211.822 61.6869C211.385 62.1159 211.392 62.8046 211.837 63.2253L214.287 65.5371C214.727 65.952 215.431 65.952 215.871 65.5371L220.77 60.9136Z" fill="white" fill-opacity="0.4"/>
</g>
</g>
<g filter="url(#filter21_dd_473_163)">
<rect x="409.5" y="435.17" width="52" height="51" rx="25.5" fill="#F8FAFC"/>
</g>
<g filter="url(#filter22_d_473_163)">
<g filter="url(#filter23_d_473_163)">
<path d="M426 448.306C426 447.679 426.504 447.17 427.125 447.17H447.375C447.996 447.17 448.5 447.679 448.5 448.306V464.208C448.5 464.835 447.996 465.344 447.375 465.344H427.125C426.504 465.344 426 464.835 426 464.208V448.306Z" fill="url(#paint6_linear_473_163)"/>
</g>
<g filter="url(#filter24_dd_473_163)">
<path d="M421.5 454.235C421.5 453.518 422.149 452.98 422.846 453.121L432.298 455.03C432.561 455.083 432.75 455.316 432.75 455.586V472.602C432.75 472.96 432.425 473.229 432.077 473.159L422.404 471.205C421.879 471.099 421.5 470.633 421.5 470.092V454.235Z" fill="white" fill-opacity="0.4"/>
</g>
<g filter="url(#filter25_dd_473_163)">
<path d="M432.75 455.586C432.75 455.316 432.939 455.083 433.202 455.03L442.654 453.121C443.351 452.98 444 453.518 444 454.235V470.092C444 470.633 443.621 471.099 443.096 471.205L433.423 473.159C433.075 473.229 432.75 472.96 432.75 472.602V455.586Z" fill="white" fill-opacity="0.4"/>
</g>
<g filter="url(#filter26_dd_473_163)">
<path d="M423.75 452.533C423.75 452.136 424.142 451.862 424.51 452.001L432.02 454.845C432.459 455.011 432.75 455.435 432.75 455.908V471.656C432.75 472.449 431.965 472.998 431.23 472.719L424.115 470.025C423.895 469.942 423.75 469.73 423.75 469.493V452.533Z" fill="white" fill-opacity="0.6"/>
</g>
<g filter="url(#filter27_dd_473_163)">
<path d="M432.75 455.908C432.75 455.435 433.041 455.011 433.48 454.845L440.99 452.001C441.358 451.862 441.75 452.136 441.75 452.533V469.493C441.75 469.73 441.605 469.942 441.385 470.025L434.27 472.719C433.535 472.998 432.75 472.449 432.75 471.656V455.908Z" fill="white" fill-opacity="0.6"/>
</g>
</g>
<defs>
<filter id="filter0_dd_473_163" x="415.5" y="87.17" width="142" height="131" filterUnits="userSpaceOnUse" color-interpolation-filters="sRGB">
<feFlood flood-opacity="0" result="BackgroundImageFix"/>
<feColorMatrix in="SourceAlpha" type="matrix" values="0 0 0 0 0 0 0 0 0 0 0 0 0 0 0 0 0 0 127 0" result="hardAlpha"/>
<feOffset dx="-15" dy="-5"/>
<feGaussianBlur stdDeviation="10"/>
<feComposite in2="hardAlpha" operator="out"/>
<feColorMatrix type="matrix" values="0 0 0 0 1 0 0 0 0 1 0 0 0 0 1 0 0 0 1 0"/>
<feBlend mode="normal" in2="BackgroundImageFix" result="effect1_dropShadow_473_163"/>
<feColorMatrix in="SourceAlpha" type="matrix" values="0 0 0 0 0 0 0 0 0 0 0 0 0 0 0 0 0 0 127 0" result="hardAlpha"/>
<feOffset dx="15" dy="5"/>
<feGaussianBlur stdDeviation="20"/>
<feComposite in2="hardAlpha" operator="out"/>
<feColorMatrix type="matrix" values="0 0 0 0 0.819608 0 0 0 0 0.85098 0 0 0 0 0.901961 0 0 0 0.6 0"/>
<feBlend mode="normal" in2="effect1_dropShadow_473_163" result="effect2_dropShadow_473_163"/>
<feBlend mode="normal" in="SourceGraphic" in2="effect2_dropShadow_473_163" result="shape"/>
</filter>
<filter id="filter1_d_473_163" x="458.5" y="130.17" width="43" height="42" filterUnits="userSpaceOnUse" color-interpolation-filters="sRGB">
<feFlood flood-opacity="0" result="BackgroundImageFix"/>
<feColorMatrix in="SourceAlpha" type="matrix" values="0 0 0 0 0 0 0 0 0 0 0 0 0 0 0 0 0 0 127 0" result="hardAlpha"/>
<feOffset dx="4" dy="4"/>
<feGaussianBlur stdDeviation="4"/>
<feColorMatrix type="matrix" values="0 0 0 0 1 0 0 0 0 0.627451 0 0 0 0 0.0705882 0 0 0 0.4 0"/>
<feBlend mode="normal" in2="BackgroundImageFix" result="effect1_dropShadow_473_163"/>
<feBlend mode="normal" in="SourceGraphic" in2="effect1_dropShadow_473_163" result="shape"/>
</filter>
<filter id="filter2_d_473_163" x="459" y="126.17" width="38.5" height="42" filterUnits="userSpaceOnUse" color-interpolation-filters="sRGB">
<feFlood flood-opacity="0" result="BackgroundImageFix"/>
<feColorMatrix in="SourceAlpha" type="matrix" values="0 0 0 0 0 0 0 0 0 0 0 0 0 0 0 0 0 0 127 0" result="hardAlpha"/>
<feOffset/>
<feGaussianBlur stdDeviation="4"/>
<feComposite in2="hardAlpha" operator="out"/>
<feColorMatrix type="matrix" values="0 0 0 0 1 0 0 0 0 1 0 0 0 0 1 0 0 0 0.8 0"/>
<feBlend mode="normal" in2="BackgroundImageFix" result="effect1_dropShadow_473_163"/>
<feBlend mode="normal" in="SourceGraphic" in2="effect1_dropShadow_473_163" result="shape"/>
</filter>
<filter id="filter3_dd_473_163" x="454.5" y="132.77" width="38.5" height="34.2" filterUnits="userSpaceOnUse" color-interpolation-filters="sRGB">
<feFlood flood-opacity="0" result="BackgroundImageFix"/>
<feColorMatrix in="SourceAlpha" type="matrix" values="0 0 0 0 0 0 0 0 0 0 0 0 0 0 0 0 0 0 127 0" result="hardAlpha"/>
<feOffset/>
<feGaussianBlur stdDeviation="2"/>
<feComposite in2="hardAlpha" operator="out"/>
<feColorMatrix type="matrix" values="0 0 0 0 1 0 0 0 0 1 0 0 0 0 1 0 0 0 1 0"/>
<feBlend mode="normal" in2="BackgroundImageFix" result="effect1_dropShadow_473_163"/>
<feColorMatrix in="SourceAlpha" type="matrix" values="0 0 0 0 0 0 0 0 0 0 0 0 0 0 0 0 0 0 127 0" result="hardAlpha"/>
<feOffset dy="4"/>
<feGaussianBlur stdDeviation="4"/>
<feComposite in2="hardAlpha" operator="out"/>
<feColorMatrix type="matrix" values="0 0 0 0 1 0 0 0 0 1 0 0 0 0 1 0 0 0 1 0"/>
<feBlend mode="normal" in2="effect1_dropShadow_473_163" result="effect2_dropShadow_473_163"/>
<feBlend mode="normal" in="SourceGraphic" in2="effect2_dropShadow_473_163" result="shape"/>
</filter>
<filter id="filter4_dd_473_163" x="456.75" y="139.27" width="29.5" height="18.6" filterUnits="userSpaceOnUse" color-interpolation-filters="sRGB">
<feFlood flood-opacity="0" result="BackgroundImageFix"/>
<feColorMatrix in="SourceAlpha" type="matrix" values="0 0 0 0 0 0 0 0 0 0 0 0 0 0 0 0 0 0 127 0" result="hardAlpha"/>
<feOffset/>
<feGaussianBlur stdDeviation="2"/>
<feComposite in2="hardAlpha" operator="out"/>
<feColorMatrix type="matrix" values="0 0 0 0 1 0 0 0 0 1 0 0 0 0 1 0 0 0 1 0"/>
<feBlend mode="normal" in2="BackgroundImageFix" result="effect1_dropShadow_473_163"/>
<feColorMatrix in="SourceAlpha" type="matrix" values="0 0 0 0 0 0 0 0 0 0 0 0 0 0 0 0 0 0 127 0" result="hardAlpha"/>
<feOffset dy="4"/>
<feGaussianBlur stdDeviation="4"/>
<feComposite in2="hardAlpha" operator="out"/>
<feColorMatrix type="matrix" values="0 0 0 0 1 0 0 0 0 1 0 0 0 0 1 0 0 0 1 0"/>
<feBlend mode="normal" in2="effect1_dropShadow_473_163" result="effect2_dropShadow_473_163"/>
<feBlend mode="normal" in="SourceGraphic" in2="effect2_dropShadow_473_163" result="shape"/>
</filter>
<filter id="filter5_dd_473_163" x="456.75" y="143.17" width="22.75" height="18.6" filterUnits="userSpaceOnUse" color-interpolation-filters="sRGB">
<feFlood flood-opacity="0" result="BackgroundImageFix"/>
<feColorMatrix in="SourceAlpha" type="matrix" values="0 0 0 0 0 0 0 0 0 0 0 0 0 0 0 0 0 0 127 0" result="hardAlpha"/>
<feOffset/>
<feGaussianBlur stdDeviation="2"/>
<feComposite in2="hardAlpha" operator="out"/>
<feColorMatrix type="matrix" values="0 0 0 0 1 0 0 0 0 1 0 0 0 0 1 0 0 0 1 0"/>
<feBlend mode="normal" in2="BackgroundImageFix" result="effect1_dropShadow_473_163"/>
<feColorMatrix in="SourceAlpha" type="matrix" values="0 0 0 0 0 0 0 0 0 0 0 0 0 0 0 0 0 0 127 0" result="hardAlpha"/>
<feOffset dy="4"/>
<feGaussianBlur stdDeviation="4"/>
<feComposite in2="hardAlpha" operator="out"/>
<feColorMatrix type="matrix" values="0 0 0 0 1 0 0 0 0 1 0 0 0 0 1 0 0 0 1 0"/>
<feBlend mode="normal" in2="effect1_dropShadow_473_163" result="effect2_dropShadow_473_163"/>
<feBlend mode="normal" in="SourceGraphic" in2="effect2_dropShadow_473_163" result="shape"/>
</filter>
<filter id="filter6_dd_473_163" x="456.75" y="135.37" width="34" height="18.6" filterUnits="userSpaceOnUse" color-interpolation-filters="sRGB">
<feFlood flood-opacity="0" result="BackgroundImageFix"/>
<feColorMatrix in="SourceAlpha" type="matrix" values="0 0 0 0 0 0 0 0 0 0 0 0 0 0 0 0 0 0 127 0" result="hardAlpha"/>
<feOffset/>
<feGaussianBlur stdDeviation="2"/>
<feComposite in2="hardAlpha" operator="out"/>
<feColorMatrix type="matrix" values="0 0 0 0 1 0 0 0 0 1 0 0 0 0 1 0 0 0 1 0"/>
<feBlend mode="normal" in2="BackgroundImageFix" result="effect1_dropShadow_473_163"/>
<feColorMatrix in="SourceAlpha" type="matrix" values="0 0 0 0 0 0 0 0 0 0 0 0 0 0 0 0 0 0 127 0" result="hardAlpha"/>
<feOffset dy="4"/>
<feGaussianBlur stdDeviation="4"/>
<feComposite in2="hardAlpha" operator="out"/>
<feColorMatrix type="matrix" values="0 0 0 0 1 0 0 0 0 1 0 0 0 0 1 0 0 0 1 0"/>
<feBlend mode="normal" in2="effect1_dropShadow_473_163" result="effect2_dropShadow_473_163"/>
<feBlend mode="normal" in="SourceGraphic" in2="effect2_dropShadow_473_163" result="shape"/>
</filter>
<filter id="filter7_dd_473_163" x="0.5" y="264.17" width="142" height="131" filterUnits="userSpaceOnUse" color-interpolation-filters="sRGB">
<feFlood flood-opacity="0" result="BackgroundImageFix"/>
<feColorMatrix in="SourceAlpha" type="matrix" values="0 0 0 0 0 0 0 0 0 0 0 0 0 0 0 0 0 0 127 0" result="hardAlpha"/>
<feOffset dx="-15" dy="-5"/>
<feGaussianBlur stdDeviation="10"/>
<feComposite in2="hardAlpha" operator="out"/>
<feColorMatrix type="matrix" values="0 0 0 0 1 0 0 0 0 1 0 0 0 0 1 0 0 0 1 0"/>
<feBlend mode="normal" in2="BackgroundImageFix" result="effect1_dropShadow_473_163"/>
<feColorMatrix in="SourceAlpha" type="matrix" values="0 0 0 0 0 0 0 0 0 0 0 0 0 0 0 0 0 0 127 0" result="hardAlpha"/>
<feOffset dx="15" dy="5"/>
<feGaussianBlur stdDeviation="20"/>
<feComposite in2="hardAlpha" operator="out"/>
<feColorMatrix type="matrix" values="0 0 0 0 0.819608 0 0 0 0 0.85098 0 0 0 0 0.901961 0 0 0 0.6 0"/>
<feBlend mode="normal" in2="effect1_dropShadow_473_163" result="effect2_dropShadow_473_163"/>
<feBlend mode="normal" in="SourceGraphic" in2="effect2_dropShadow_473_163" result="shape"/>
</filter>
<filter id="filter8_d_473_163" x="43.5" y="307.17" width="43" height="42" filterUnits="userSpaceOnUse" color-interpolation-filters="sRGB">
<feFlood flood-opacity="0" result="BackgroundImageFix"/>
<feColorMatrix in="SourceAlpha" type="matrix" values="0 0 0 0 0 0 0 0 0 0 0 0 0 0 0 0 0 0 127 0" result="hardAlpha"/>
<feOffset dx="4" dy="4"/>
<feGaussianBlur stdDeviation="4"/>
<feColorMatrix type="matrix" values="0 0 0 0 0.545098 0 0 0 0 0.823529 0 0 0 0 0.192157 0 0 0 0.4 0"/>
<feBlend mode="normal" in2="BackgroundImageFix" result="effect1_dropShadow_473_163"/>
<feBlend mode="normal" in="SourceGraphic" in2="effect1_dropShadow_473_163" result="shape"/>
</filter>
<filter id="filter9_d_473_163" x="42.2" y="303.17" width="21.4" height="42" filterUnits="userSpaceOnUse" color-interpolation-filters="sRGB">
<feFlood flood-opacity="0" result="BackgroundImageFix"/>
<feColorMatrix in="SourceAlpha" type="matrix" values="0 0 0 0 0 0 0 0 0 0 0 0 0 0 0 0 0 0 127 0" result="hardAlpha"/>
<feOffset/>
<feGaussianBlur stdDeviation="4"/>
<feComposite in2="hardAlpha" operator="out"/>
<feColorMatrix type="matrix" values="0 0 0 0 1 0 0 0 0 1 0 0 0 0 1 0 0 0 0.8 0"/>
<feBlend mode="normal" in2="BackgroundImageFix" result="effect1_dropShadow_473_163"/>
<feBlend mode="normal" in="SourceGraphic" in2="effect1_dropShadow_473_163" result="shape"/>
</filter>
<filter id="filter10_d_473_163" x="58.4" y="303.17" width="21.4" height="42" filterUnits="userSpaceOnUse" color-interpolation-filters="sRGB">
<feFlood flood-opacity="0" result="BackgroundImageFix"/>
<feColorMatrix in="SourceAlpha" type="matrix" values="0 0 0 0 0 0 0 0 0 0 0 0 0 0 0 0 0 0 127 0" result="hardAlpha"/>
<feOffset/>
<feGaussianBlur stdDeviation="4"/>
<feComposite in2="hardAlpha" operator="out"/>
<feColorMatrix type="matrix" values="0 0 0 0 1 0 0 0 0 1 0 0 0 0 1 0 0 0 0.8 0"/>
<feBlend mode="normal" in2="BackgroundImageFix" result="effect1_dropShadow_473_163"/>
<feBlend mode="normal" in="SourceGraphic" in2="effect1_dropShadow_473_163" result="shape"/>
</filter>
<filter id="filter11_dd_473_163" x="39.5" y="311.503" width="26.8" height="24.6667" filterUnits="userSpaceOnUse" color-interpolation-filters="sRGB">
<feFlood flood-opacity="0" result="BackgroundImageFix"/>
<feColorMatrix in="SourceAlpha" type="matrix" values="0 0 0 0 0 0 0 0 0 0 0 0 0 0 0 0 0 0 127 0" result="hardAlpha"/>
<feOffset/>
<feGaussianBlur stdDeviation="2"/>
<feComposite in2="hardAlpha" operator="out"/>
<feColorMatrix type="matrix" values="0 0 0 0 1 0 0 0 0 1 0 0 0 0 1 0 0 0 1 0"/>
<feBlend mode="normal" in2="BackgroundImageFix" result="effect1_dropShadow_473_163"/>
<feColorMatrix in="SourceAlpha" type="matrix" values="0 0 0 0 0 0 0 0 0 0 0 0 0 0 0 0 0 0 127 0" result="hardAlpha"/>
<feOffset dy="4"/>
<feGaussianBlur stdDeviation="4"/>
<feComposite in2="hardAlpha" operator="out"/>
<feColorMatrix type="matrix" values="0 0 0 0 1 0 0 0 0 1 0 0 0 0 1 0 0 0 1 0"/>
<feBlend mode="normal" in2="effect1_dropShadow_473_163" result="effect2_dropShadow_473_163"/>
<feBlend mode="normal" in="SourceGraphic" in2="effect2_dropShadow_473_163" result="shape"/>
</filter>
<filter id="filter12_d_473_163" x="40.8501" y="308.587" width="24.1" height="22.5" filterUnits="userSpaceOnUse" color-interpolation-filters="sRGB">
<feFlood flood-opacity="0" result="BackgroundImageFix"/>
<feColorMatrix in="SourceAlpha" type="matrix" values="0 0 0 0 0 0 0 0 0 0 0 0 0 0 0 0 0 0 127 0" result="hardAlpha"/>
<feOffset/>
<feGaussianBlur stdDeviation="4"/>
<feComposite in2="hardAlpha" operator="out"/>
<feColorMatrix type="matrix" values="0 0 0 0 1 0 0 0 0 1 0 0 0 0 1 0 0 0 0.8 0"/>
<feBlend mode="normal" in2="BackgroundImageFix" result="effect1_dropShadow_473_163"/>
<feBlend mode="normal" in="SourceGraphic" in2="effect1_dropShadow_473_163" result="shape"/>
</filter>
<filter id="filter13_dd_473_163" x="55.7" y="320.17" width="26.8" height="24.6667" filterUnits="userSpaceOnUse" color-interpolation-filters="sRGB">
<feFlood flood-opacity="0" result="BackgroundImageFix"/>
<feColorMatrix in="SourceAlpha" type="matrix" values="0 0 0 0 0 0 0 0 0 0 0 0 0 0 0 0 0 0 127 0" result="hardAlpha"/>
<feOffset/>
<feGaussianBlur stdDeviation="2"/>
<feComposite in2="hardAlpha" operator="out"/>
<feColorMatrix type="matrix" values="0 0 0 0 1 0 0 0 0 1 0 0 0 0 1 0 0 0 1 0"/>
<feBlend mode="normal" in2="BackgroundImageFix" result="effect1_dropShadow_473_163"/>
<feColorMatrix in="SourceAlpha" type="matrix" values="0 0 0 0 0 0 0 0 0 0 0 0 0 0 0 0 0 0 127 0" result="hardAlpha"/>
<feOffset dy="4"/>
<feGaussianBlur stdDeviation="4"/>
<feComposite in2="hardAlpha" operator="out"/>
<feColorMatrix type="matrix" values="0 0 0 0 1 0 0 0 0 1 0 0 0 0 1 0 0 0 1 0"/>
<feBlend mode="normal" in2="effect1_dropShadow_473_163" result="effect2_dropShadow_473_163"/>
<feBlend mode="normal" in="SourceGraphic" in2="effect2_dropShadow_473_163" result="shape"/>
</filter>
<filter id="filter14_d_473_163" x="57.05" y="317.253" width="24.1" height="22.5" filterUnits="userSpaceOnUse" color-interpolation-filters="sRGB">
<feFlood flood-opacity="0" result="BackgroundImageFix"/>
<feColorMatrix in="SourceAlpha" type="matrix" values="0 0 0 0 0 0 0 0 0 0 0 0 0 0 0 0 0 0 127 0" result="hardAlpha"/>
<feOffset/>
<feGaussianBlur stdDeviation="4"/>
<feComposite in2="hardAlpha" operator="out"/>
<feColorMatrix type="matrix" values="0 0 0 0 1 0 0 0 0 1 0 0 0 0 1 0 0 0 0.8 0"/>
<feBlend mode="normal" in2="BackgroundImageFix" result="effect1_dropShadow_473_163"/>
<feBlend mode="normal" in="SourceGraphic" in2="effect1_dropShadow_473_163" result="shape"/>
</filter>
<filter id="filter15_dd_473_163" x="42.5376" y="313.941" width="20.725" height="19.7917" filterUnits="userSpaceOnUse" color-interpolation-filters="sRGB">
<feFlood flood-opacity="0" result="BackgroundImageFix"/>
<feColorMatrix in="SourceAlpha" type="matrix" values="0 0 0 0 0 0 0 0 0 0 0 0 0 0 0 0 0 0 127 0" result="hardAlpha"/>
<feOffset/>
<feGaussianBlur stdDeviation="2"/>
<feComposite in2="hardAlpha" operator="out"/>
<feColorMatrix type="matrix" values="0 0 0 0 1 0 0 0 0 1 0 0 0 0 1 0 0 0 1 0"/>
<feBlend mode="normal" in2="BackgroundImageFix" result="effect1_dropShadow_473_163"/>
<feColorMatrix in="SourceAlpha" type="matrix" values="0 0 0 0 0 0 0 0 0 0 0 0 0 0 0 0 0 0 127 0" result="hardAlpha"/>
<feOffset dy="4"/>
<feGaussianBlur stdDeviation="4"/>
<feComposite in2="hardAlpha" operator="out"/>
<feColorMatrix type="matrix" values="0 0 0 0 1 0 0 0 0 1 0 0 0 0 1 0 0 0 1 0"/>
<feBlend mode="normal" in2="effect1_dropShadow_473_163" result="effect2_dropShadow_473_163"/>
<feBlend mode="normal" in="SourceGraphic" in2="effect2_dropShadow_473_163" result="shape"/>
</filter>
<filter id="filter16_dd_473_163" x="58.7375" y="322.607" width="20.725" height="19.7917" filterUnits="userSpaceOnUse" color-interpolation-filters="sRGB">
<feFlood flood-opacity="0" result="BackgroundImageFix"/>
<feColorMatrix in="SourceAlpha" type="matrix" values="0 0 0 0 0 0 0 0 0 0 0 0 0 0 0 0 0 0 127 0" result="hardAlpha"/>
<feOffset/>
<feGaussianBlur stdDeviation="2"/>
<feComposite in2="hardAlpha" operator="out"/>
<feColorMatrix type="matrix" values="0 0 0 0 1 0 0 0 0 1 0 0 0 0 1 0 0 0 1 0"/>
<feBlend mode="normal" in2="BackgroundImageFix" result="effect1_dropShadow_473_163"/>
<feColorMatrix in="SourceAlpha" type="matrix" values="0 0 0 0 0 0 0 0 0 0 0 0 0 0 0 0 0 0 127 0" result="hardAlpha"/>
<feOffset dy="4"/>
<feGaussianBlur stdDeviation="4"/>
<feComposite in2="hardAlpha" operator="out"/>
<feColorMatrix type="matrix" values="0 0 0 0 1 0 0 0 0 1 0 0 0 0 1 0 0 0 1 0"/>
<feBlend mode="normal" in2="effect1_dropShadow_473_163" result="effect2_dropShadow_473_163"/>
<feBlend mode="normal" in="SourceGraphic" in2="effect2_dropShadow_473_163" result="shape"/>
</filter>
<filter id="filter17_dd_473_163" x="157.5" y="0.169983" width="142" height="131" filterUnits="userSpaceOnUse" color-interpolation-filters="sRGB">
<feFlood flood-opacity="0" result="BackgroundImageFix"/>
<feColorMatrix in="SourceAlpha" type="matrix" values="0 0 0 0 0 0 0 0 0 0 0 0 0 0 0 0 0 0 127 0" result="hardAlpha"/>
<feOffset dx="-15" dy="-5"/>
<feGaussianBlur stdDeviation="10"/>
<feComposite in2="hardAlpha" operator="out"/>
<feColorMatrix type="matrix" values="0 0 0 0 1 0 0 0 0 1 0 0 0 0 1 0 0 0 1 0"/>
<feBlend mode="normal" in2="BackgroundImageFix" result="effect1_dropShadow_473_163"/>
<feColorMatrix in="SourceAlpha" type="matrix" values="0 0 0 0 0 0 0 0 0 0 0 0 0 0 0 0 0 0 127 0" result="hardAlpha"/>
<feOffset dx="15" dy="5"/>
<feGaussianBlur stdDeviation="20"/>
<feComposite in2="hardAlpha" operator="out"/>
<feColorMatrix type="matrix" values="0 0 0 0 0.819608 0 0 0 0 0.85098 0 0 0 0 0.901961 0 0 0 0.6 0"/>
<feBlend mode="normal" in2="effect1_dropShadow_473_163" result="effect2_dropShadow_473_163"/>
<feBlend mode="normal" in="SourceGraphic" in2="effect2_dropShadow_473_163" result="shape"/>
</filter>
<filter id="filter18_d_473_163" x="200.5" y="43.17" width="43" height="42" filterUnits="userSpaceOnUse" color-interpolation-filters="sRGB">
<feFlood flood-opacity="0" result="BackgroundImageFix"/>
<feColorMatrix in="SourceAlpha" type="matrix" values="0 0 0 0 0 0 0 0 0 0 0 0 0 0 0 0 0 0 127 0" result="hardAlpha"/>
<feOffset dx="4" dy="4"/>
<feGaussianBlur stdDeviation="4"/>
<feColorMatrix type="matrix" values="0 0 0 0 0.545098 0 0 0 0 0.823529 0 0 0 0 0.192157 0 0 0 0.4 0"/>
<feBlend mode="normal" in2="BackgroundImageFix" result="effect1_dropShadow_473_163"/>
<feBlend mode="normal" in="SourceGraphic" in2="effect1_dropShadow_473_163" result="shape"/>
</filter>
<filter id="filter19_d_473_163" x="201.023" y="39.17" width="38.4771" height="37.6486" filterUnits="userSpaceOnUse" color-interpolation-filters="sRGB">
<feFlood flood-opacity="0" result="BackgroundImageFix"/>
<feColorMatrix in="SourceAlpha" type="matrix" values="0 0 0 0 0 0 0 0 0 0 0 0 0 0 0 0 0 0 127 0" result="hardAlpha"/>
<feOffset/>
<feGaussianBlur stdDeviation="4"/>
<feComposite in2="hardAlpha" operator="out"/>
<feColorMatrix type="matrix" values="0 0 0 0 1 0 0 0 0 1 0 0 0 0 1 0 0 0 0.8 0"/>
<feBlend mode="normal" in2="BackgroundImageFix" result="effect1_dropShadow_473_163"/>
<feBlend mode="normal" in="SourceGraphic" in2="effect1_dropShadow_473_163" result="shape"/>
</filter>
<filter id="filter20_dd_473_163" x="196.5" y="47.5214" width="38.4771" height="37.6485" filterUnits="userSpaceOnUse" color-interpolation-filters="sRGB">
<feFlood flood-opacity="0" result="BackgroundImageFix"/>
<feColorMatrix in="SourceAlpha" type="matrix" values="0 0 0 0 0 0 0 0 0 0 0 0 0 0 0 0 0 0 127 0" result="hardAlpha"/>
<feOffset/>
<feGaussianBlur stdDeviation="2"/>
<feComposite in2="hardAlpha" operator="out"/>
<feColorMatrix type="matrix" values="0 0 0 0 1 0 0 0 0 1 0 0 0 0 1 0 0 0 1 0"/>
<feBlend mode="normal" in2="BackgroundImageFix" result="effect1_dropShadow_473_163"/>
<feColorMatrix in="SourceAlpha" type="matrix" values="0 0 0 0 0 0 0 0 0 0 0 0 0 0 0 0 0 0 127 0" result="hardAlpha"/>
<feOffset dy="4"/>
<feGaussianBlur stdDeviation="4"/>
<feComposite in2="hardAlpha" operator="out"/>
<feColorMatrix type="matrix" values="0 0 0 0 1 0 0 0 0 1 0 0 0 0 1 0 0 0 1 0"/>
<feBlend mode="normal" in2="effect1_dropShadow_473_163" result="effect2_dropShadow_473_163"/>
<feBlend mode="normal" in="SourceGraphic" in2="effect2_dropShadow_473_163" result="shape"/>
</filter>
<filter id="filter21_dd_473_163" x="374.5" y="400.17" width="142" height="131" filterUnits="userSpaceOnUse" color-interpolation-filters="sRGB">
<feFlood flood-opacity="0" result="BackgroundImageFix"/>
<feColorMatrix in="SourceAlpha" type="matrix" values="0 0 0 0 0 0 0 0 0 0 0 0 0 0 0 0 0 0 127 0" result="hardAlpha"/>
<feOffset dx="-15" dy="-5"/>
<feGaussianBlur stdDeviation="10"/>
<feComposite in2="hardAlpha" operator="out"/>
<feColorMatrix type="matrix" values="0 0 0 0 1 0 0 0 0 1 0 0 0 0 1 0 0 0 1 0"/>
<feBlend mode="normal" in2="BackgroundImageFix" result="effect1_dropShadow_473_163"/>
<feColorMatrix in="SourceAlpha" type="matrix" values="0 0 0 0 0 0 0 0 0 0 0 0 0 0 0 0 0 0 127 0" result="hardAlpha"/>
<feOffset dx="15" dy="5"/>
<feGaussianBlur stdDeviation="20"/>
<feComposite in2="hardAlpha" operator="out"/>
<feColorMatrix type="matrix" values="0 0 0 0 0.819608 0 0 0 0 0.85098 0 0 0 0 0.901961 0 0 0 0.6 0"/>
<feBlend mode="normal" in2="effect1_dropShadow_473_163" result="effect2_dropShadow_473_163"/>
<feBlend mode="normal" in="SourceGraphic" in2="effect2_dropShadow_473_163" result="shape"/>
</filter>
<filter id="filter22_d_473_163" x="417.5" y="443.17" width="43" height="42" filterUnits="userSpaceOnUse" color-interpolation-filters="sRGB">
<feFlood flood-opacity="0" result="BackgroundImageFix"/>
<feColorMatrix in="SourceAlpha" type="matrix" values="0 0 0 0 0 0 0 0 0 0 0 0 0 0 0 0 0 0 127 0" result="hardAlpha"/>
<feOffset dx="4" dy="4"/>
<feGaussianBlur stdDeviation="4"/>
<feColorMatrix type="matrix" values="0 0 0 0 0.545098 0 0 0 0 0.823529 0 0 0 0 0.192157 0 0 0 0.4 0"/>
<feBlend mode="normal" in2="BackgroundImageFix" result="effect1_dropShadow_473_163"/>
<feBlend mode="normal" in="SourceGraphic" in2="effect1_dropShadow_473_163" result="shape"/>
</filter>
<filter id="filter23_d_473_163" x="418" y="439.17" width="38.5" height="34.1737" filterUnits="userSpaceOnUse" color-interpolation-filters="sRGB">
<feFlood flood-opacity="0" result="BackgroundImageFix"/>
<feColorMatrix in="SourceAlpha" type="matrix" values="0 0 0 0 0 0 0 0 0 0 0 0 0 0 0 0 0 0 127 0" result="hardAlpha"/>
<feOffset/>
<feGaussianBlur stdDeviation="4"/>
<feComposite in2="hardAlpha" operator="out"/>
<feColorMatrix type="matrix" values="0 0 0 0 1 0 0 0 0 1 0 0 0 0 1 0 0 0 0.8 0"/>
<feBlend mode="normal" in2="BackgroundImageFix" result="effect1_dropShadow_473_163"/>
<feBlend mode="normal" in="SourceGraphic" in2="effect1_dropShadow_473_163" result="shape"/>
</filter>
<filter id="filter24_dd_473_163" x="413.5" y="449.098" width="27.25" height="36.0715" filterUnits="userSpaceOnUse" color-interpolation-filters="sRGB">
<feFlood flood-opacity="0" result="BackgroundImageFix"/>
<feColorMatrix in="SourceAlpha" type="matrix" values="0 0 0 0 0 0 0 0 0 0 0 0 0 0 0 0 0 0 127 0" result="hardAlpha"/>
<feOffset/>
<feGaussianBlur stdDeviation="2"/>
<feComposite in2="hardAlpha" operator="out"/>
<feColorMatrix type="matrix" values="0 0 0 0 1 0 0 0 0 1 0 0 0 0 1 0 0 0 1 0"/>
<feBlend mode="normal" in2="BackgroundImageFix" result="effect1_dropShadow_473_163"/>
<feColorMatrix in="SourceAlpha" type="matrix" values="0 0 0 0 0 0 0 0 0 0 0 0 0 0 0 0 0 0 127 0" result="hardAlpha"/>
<feOffset dy="4"/>
<feGaussianBlur stdDeviation="4"/>
<feComposite in2="hardAlpha" operator="out"/>
<feColorMatrix type="matrix" values="0 0 0 0 1 0 0 0 0 1 0 0 0 0 1 0 0 0 1 0"/>
<feBlend mode="normal" in2="effect1_dropShadow_473_163" result="effect2_dropShadow_473_163"/>
<feBlend mode="normal" in="SourceGraphic" in2="effect2_dropShadow_473_163" result="shape"/>
</filter>
<filter id="filter25_dd_473_163" x="424.75" y="449.098" width="27.25" height="36.0715" filterUnits="userSpaceOnUse" color-interpolation-filters="sRGB">
<feFlood flood-opacity="0" result="BackgroundImageFix"/>
<feColorMatrix in="SourceAlpha" type="matrix" values="0 0 0 0 0 0 0 0 0 0 0 0 0 0 0 0 0 0 127 0" result="hardAlpha"/>
<feOffset/>
<feGaussianBlur stdDeviation="2"/>
<feComposite in2="hardAlpha" operator="out"/>
<feColorMatrix type="matrix" values="0 0 0 0 1 0 0 0 0 1 0 0 0 0 1 0 0 0 1 0"/>
<feBlend mode="normal" in2="BackgroundImageFix" result="effect1_dropShadow_473_163"/>
<feColorMatrix in="SourceAlpha" type="matrix" values="0 0 0 0 0 0 0 0 0 0 0 0 0 0 0 0 0 0 127 0" result="hardAlpha"/>
<feOffset dy="4"/>
<feGaussianBlur stdDeviation="4"/>
<feComposite in2="hardAlpha" operator="out"/>
<feColorMatrix type="matrix" values="0 0 0 0 1 0 0 0 0 1 0 0 0 0 1 0 0 0 1 0"/>
<feBlend mode="normal" in2="effect1_dropShadow_473_163" result="effect2_dropShadow_473_163"/>
<feBlend mode="normal" in="SourceGraphic" in2="effect2_dropShadow_473_163" result="shape"/>
</filter>
<filter id="filter26_dd_473_163" x="415.75" y="447.964" width="25" height="36.8279" filterUnits="userSpaceOnUse" color-interpolation-filters="sRGB">
<feFlood flood-opacity="0" result="BackgroundImageFix"/>
<feColorMatrix in="SourceAlpha" type="matrix" values="0 0 0 0 0 0 0 0 0 0 0 0 0 0 0 0 0 0 127 0" result="hardAlpha"/>
<feOffset/>
<feGaussianBlur stdDeviation="2"/>
<feComposite in2="hardAlpha" operator="out"/>
<feColorMatrix type="matrix" values="0 0 0 0 1 0 0 0 0 1 0 0 0 0 1 0 0 0 1 0"/>
<feBlend mode="normal" in2="BackgroundImageFix" result="effect1_dropShadow_473_163"/>
<feColorMatrix in="SourceAlpha" type="matrix" values="0 0 0 0 0 0 0 0 0 0 0 0 0 0 0 0 0 0 127 0" result="hardAlpha"/>
<feOffset dy="4"/>
<feGaussianBlur stdDeviation="4"/>
<feComposite in2="hardAlpha" operator="out"/>
<feColorMatrix type="matrix" values="0 0 0 0 1 0 0 0 0 1 0 0 0 0 1 0 0 0 1 0"/>
<feBlend mode="normal" in2="effect1_dropShadow_473_163" result="effect2_dropShadow_473_163"/>
<feBlend mode="normal" in="SourceGraphic" in2="effect2_dropShadow_473_163" result="shape"/>
</filter>
<filter id="filter27_dd_473_163" x="424.75" y="447.964" width="25" height="36.8279" filterUnits="userSpaceOnUse" color-interpolation-filters="sRGB">
<feFlood flood-opacity="0" result="BackgroundImageFix"/>
<feColorMatrix in="SourceAlpha" type="matrix" values="0 0 0 0 0 0 0 0 0 0 0 0 0 0 0 0 0 0 127 0" result="hardAlpha"/>
<feOffset/>
<feGaussianBlur stdDeviation="2"/>
<feComposite in2="hardAlpha" operator="out"/>
<feColorMatrix type="matrix" values="0 0 0 0 1 0 0 0 0 1 0 0 0 0 1 0 0 0 1 0"/>
<feBlend mode="normal" in2="BackgroundImageFix" result="effect1_dropShadow_473_163"/>
<feColorMatrix in="SourceAlpha" type="matrix" values="0 0 0 0 0 0 0 0 0 0 0 0 0 0 0 0 0 0 127 0" result="hardAlpha"/>
<feOffset dy="4"/>
<feGaussianBlur stdDeviation="4"/>
<feComposite in2="hardAlpha" operator="out"/>
<feColorMatrix type="matrix" values="0 0 0 0 1 0 0 0 0 1 0 0 0 0 1 0 0 0 1 0"/>
<feBlend mode="normal" in2="effect1_dropShadow_473_163" result="effect2_dropShadow_473_163"/>
<feBlend mode="normal" in="SourceGraphic" in2="effect2_dropShadow_473_163" result="shape"/>
</filter>
<linearGradient id="paint0_linear_473_163" x1="478.25" y1="134.17" x2="478.25" y2="160.17" gradientUnits="userSpaceOnUse">
<stop stop-color="#FFBC0E"/>
<stop offset="1" stop-color="#FF7C1E"/>
</linearGradient>
<linearGradient id="paint1_linear_473_163" x1="52.9" y1="311.17" x2="52.9" y2="337.17" gradientUnits="userSpaceOnUse">
<stop stop-color="#93DF32"/>
<stop offset="1" stop-color="#70BD0D"/>
</linearGradient>
<linearGradient id="paint2_linear_473_163" x1="69.1" y1="311.17" x2="69.1" y2="337.17" gradientUnits="userSpaceOnUse">
<stop stop-color="#93DF32"/>
<stop offset="1" stop-color="#70BD0D"/>
</linearGradient>
<linearGradient id="paint3_linear_473_163" x1="52.9001" y1="316.587" x2="52.9001" y2="323.087" gradientUnits="userSpaceOnUse">
<stop stop-color="#93DF32"/>
<stop offset="1" stop-color="#70BD0D"/>
</linearGradient>
<linearGradient id="paint4_linear_473_163" x1="69.1" y1="325.253" x2="69.1" y2="331.753" gradientUnits="userSpaceOnUse">
<stop stop-color="#93DF32"/>
<stop offset="1" stop-color="#70BD0D"/>
</linearGradient>
<linearGradient id="paint5_linear_473_163" x1="220.261" y1="47.17" x2="220.261" y2="68.8186" gradientUnits="userSpaceOnUse">
<stop stop-color="#93DF32"/>
<stop offset="1" stop-color="#70BD0D"/>
</linearGradient>
<linearGradient id="paint6_linear_473_163" x1="437.25" y1="447.17" x2="437.25" y2="465.344" gradientUnits="userSpaceOnUse">
<stop stop-color="#93DF32"/>
<stop offset="1" stop-color="#70BD0D"/>
</linearGradient>
</defs>
</svg>
