<svg width="20" height="19" viewBox="0 0 20 19" fill="none" xmlns="http://www.w3.org/2000/svg">
<path d="M10.3471 0.231874L13.0448 5.71603L19.0752 6.59566C19.1518 6.60704 19.2236 6.63957 19.2827 6.68957C19.3417 6.73957 19.3856 6.80506 19.4095 6.87868C19.4333 6.95229 19.4361 7.0311 19.4176 7.10622C19.3991 7.18135 19.3599 7.24981 19.3046 7.30389L14.9418 11.5718L15.9719 17.5993C15.9851 17.6755 15.9768 17.7539 15.9478 17.8256C15.9188 17.8973 15.8703 17.9594 15.8077 18.005C15.7452 18.0505 15.6712 18.0776 15.5941 18.0832C15.5169 18.0888 15.4398 18.0727 15.3713 18.0367L9.97718 15.1914L4.58304 18.0375C4.51465 18.0736 4.43748 18.0899 4.36032 18.0844C4.28316 18.0788 4.20909 18.0518 4.14653 18.0063C4.08398 17.9608 4.03544 17.8986 4.00645 17.8269C3.97745 17.7552 3.96916 17.6768 3.98251 17.6006L5.01258 11.5718L0.648525 7.30389C0.593191 7.24981 0.554056 7.18135 0.535527 7.10622C0.516999 7.0311 0.519813 6.95229 0.543653 6.87868C0.567493 6.80506 0.611411 6.73957 0.670463 6.68957C0.729514 6.63957 0.801352 6.60704 0.877888 6.59566L6.90832 5.71603L9.60724 0.231874C9.6409 0.162379 9.69345 0.103769 9.75888 0.0627598C9.82431 0.0217505 9.89996 0 9.97718 0C10.0544 0 10.1301 0.0217505 10.1955 0.0627598C10.2609 0.103769 10.3135 0.162379 10.3471 0.231874Z" fill="#2563EB"/>
</svg>
