<svg width="19" height="19" viewBox="0 0 19 19" fill="none" xmlns="http://www.w3.org/2000/svg">
<path d="M9.91743 0.231874L12.6151 5.71603L18.6455 6.59566C18.7221 6.60704 18.7939 6.63957 18.853 6.68957C18.912 6.73957 18.9559 6.80506 18.9798 6.87868C19.0036 6.95229 19.0064 7.0311 18.9879 7.10622C18.9694 7.18135 18.9302 7.24981 18.8749 7.30389L14.5121 11.5718L15.5422 17.5993C15.5554 17.6755 15.5471 17.7539 15.5181 17.8256C15.4891 17.8973 15.4406 17.9594 15.3781 18.005C15.3155 18.0505 15.2415 18.0776 15.1644 18.0832C15.0872 18.0888 15.0101 18.0727 14.9416 18.0367L9.54749 15.1914L4.15336 18.0375C4.08496 18.0736 4.0078 18.0899 3.93063 18.0844C3.85347 18.0788 3.7794 18.0518 3.71684 18.0063C3.65429 17.9608 3.60576 17.8986 3.57676 17.8269C3.54776 17.7552 3.53947 17.6768 3.55282 17.6006L4.5829 11.5718L0.218837 7.30389C0.163503 7.24981 0.124368 7.18135 0.10584 7.10622C0.0873116 7.0311 0.0901258 6.95229 0.113966 6.87868C0.137805 6.80506 0.181724 6.73957 0.240775 6.68957C0.299826 6.63957 0.371665 6.60704 0.4482 6.59566L6.47863 5.71603L9.17755 0.231874C9.21121 0.162379 9.26376 0.103769 9.32919 0.0627598C9.39462 0.0217505 9.47027 0 9.54749 0C9.62471 0 9.70037 0.0217505 9.76579 0.0627598C9.83122 0.103769 9.88377 0.162379 9.91743 0.231874Z" fill="#2563EB"/>
</svg>
