<svg width="20" height="19" viewBox="0 0 20 19" fill="none" xmlns="http://www.w3.org/2000/svg">
<path d="M10.394 0.231874L13.0917 5.71603L19.1221 6.59566C19.1986 6.60704 19.2705 6.63957 19.3295 6.68957C19.3886 6.73957 19.4325 6.80506 19.4563 6.87868C19.4802 6.95229 19.483 7.0311 19.4645 7.10622C19.4459 7.18135 19.4068 7.24981 19.3515 7.30389L14.9886 11.5718L16.0187 17.5993C16.032 17.6755 16.0237 17.7539 15.9947 17.8256C15.9657 17.8973 15.9171 17.9594 15.8546 18.005C15.7921 18.0505 15.7181 18.0776 15.6409 18.0832C15.5638 18.0888 15.4866 18.0727 15.4182 18.0367L10.0241 15.1914L4.62992 18.0375C4.56152 18.0736 4.48436 18.0899 4.40719 18.0844C4.33003 18.0788 4.25596 18.0518 4.19341 18.0063C4.13085 17.9608 4.08232 17.8986 4.05332 17.8269C4.02433 17.7552 4.01603 17.6768 4.02938 17.6006L5.05946 11.5718L0.6954 7.30389C0.640066 7.24981 0.600931 7.18135 0.582402 7.10622C0.563874 7.0311 0.566688 6.95229 0.590528 6.87868C0.614368 6.80506 0.658286 6.73957 0.717338 6.68957C0.776389 6.63957 0.848227 6.60704 0.924763 6.59566L6.9552 5.71603L9.65411 0.231874C9.68777 0.162379 9.74033 0.103769 9.80575 0.0627598C9.87118 0.0217505 9.94684 0 10.0241 0C10.1013 0 10.1769 0.0217505 10.2424 0.0627598C10.3078 0.103769 10.3603 0.162379 10.394 0.231874Z" fill="#2563EB"/>
</svg>
