<svg width="19" height="19" viewBox="0 0 19 19" fill="none" xmlns="http://www.w3.org/2000/svg">
<path d="M9.87056 0.231874L12.5682 5.71603L18.5987 6.59566C18.6752 6.60704 18.747 6.63957 18.8061 6.68957C18.8652 6.73957 18.9091 6.80506 18.9329 6.87868C18.9568 6.95229 18.9596 7.0311 18.941 7.10622C18.9225 7.18135 18.8834 7.24981 18.828 7.30389L14.4652 11.5718L15.4953 17.5993C15.5086 17.6755 15.5002 17.7539 15.4712 17.8256C15.4422 17.8973 15.3937 17.9594 15.3312 18.005C15.2687 18.0505 15.1946 18.0776 15.1175 18.0832C15.0404 18.0888 14.9632 18.0727 14.8948 18.0367L9.50062 15.1914L4.10648 18.0375C4.03808 18.0736 3.96092 18.0899 3.88376 18.0844C3.80659 18.0788 3.73252 18.0518 3.66997 18.0063C3.60741 17.9608 3.55888 17.8986 3.52989 17.8269C3.50089 17.7552 3.4926 17.6768 3.50594 17.6006L4.53602 11.5718L0.171962 7.30389C0.116628 7.24981 0.0774933 7.18135 0.058965 7.10622C0.0404366 7.0311 0.0432508 6.95229 0.0670906 6.87868C0.0909304 6.80506 0.134849 6.73957 0.1939 6.68957C0.252951 6.63957 0.32479 6.60704 0.401325 6.59566L6.43176 5.71603L9.13068 0.231874C9.16434 0.162379 9.21689 0.103769 9.28232 0.0627598C9.34774 0.0217505 9.4234 0 9.50062 0C9.57783 0 9.65349 0.0217505 9.71892 0.0627598C9.78434 0.103769 9.8369 0.162379 9.87056 0.231874Z" fill="#2563EB"/>
</svg>
