<svg width="16" height="18" viewBox="0 0 16 18" fill="none" xmlns="http://www.w3.org/2000/svg">
<g clip-path="url(#clip0_2_1850)">
<path d="M12 0.796021H4C1.79086 0.796021 0 2.58688 0 4.79602V12.796C0 15.0052 1.79086 16.796 4 16.796H12C14.2091 16.796 16 15.0052 16 12.796V4.79602C16 2.58688 14.2091 0.796021 12 0.796021Z" fill="white"/>
<path d="M13.633 14.429H11.263V10.716C11.263 9.831 11.247 8.691 10.029 8.691C8.795 8.691 8.606 9.656 8.606 10.651V14.429H6.235V6.794H8.51V7.837H8.542C8.76999 7.44791 9.09909 7.12782 9.49436 6.91073C9.88964 6.69364 10.3363 6.58764 10.787 6.604C13.19 6.604 13.633 8.184 13.633 10.241V14.429ZM3.56 5.75C3.19563 5.74816 2.84671 5.6026 2.58905 5.34495C2.3314 5.0873 2.18584 4.73837 2.184 4.374C2.184 3.62 2.804 2.998 3.56 2.998C4.314 2.998 4.935 3.619 4.935 4.374C4.935 5.129 4.315 5.75 3.56 5.75ZM4.745 14.429H2.372V6.794H4.745V14.429ZM14.815 0.797004H1.181C0.871953 0.794851 0.574543 0.914752 0.353403 1.13065C0.132263 1.34655 0.00526198 1.64099 0 1.95L0 15.641C0.008 16.281 0.54 16.803 1.18 16.796H14.815C15.125 16.7984 15.4234 16.6783 15.6454 16.4618C15.8673 16.2453 15.9947 15.95 16 15.64V1.95C15.9945 1.64029 15.8669 1.34529 15.645 1.12917C15.423 0.913057 15.1248 0.794318 14.815 0.797004Z" fill="#9297A0"/>
</g>
<defs>
<clipPath id="clip0_2_1850">
<rect width="16" height="17" fill="white" transform="translate(0 0.5)"/>
</clipPath>
</defs>
</svg>
