<svg width="16" height="16" viewBox="0 0 16 16" fill="none" xmlns="http://www.w3.org/2000/svg">
<g clip-path="url(#clip0_3_926)">
<path d="M9.33366 9.50117V10.8945C8.73027 10.6812 8.08451 10.6157 7.45059 10.7037C6.81668 10.7917 6.21312 11.0304 5.69061 11.4C5.1681 11.7695 4.74189 12.259 4.44777 12.8274C4.15365 13.3958 4.0002 14.0265 4.00033 14.6665L2.66699 14.6658C2.66679 13.8518 2.85294 13.0484 3.21119 12.3174C3.56944 11.5864 4.09028 10.9471 4.7338 10.4485C5.37732 9.94993 6.12644 9.60526 6.92376 9.44093C7.72108 9.27661 8.54543 9.29699 9.33366 9.5005V9.50117ZM8.00033 8.6665C5.79033 8.6665 4.00033 6.8765 4.00033 4.6665C4.00033 2.4565 5.79033 0.666504 8.00033 0.666504C10.2103 0.666504 12.0003 2.4565 12.0003 4.6665C12.0003 6.8765 10.2103 8.6665 8.00033 8.6665ZM8.00033 7.33317C9.47366 7.33317 10.667 6.13984 10.667 4.6665C10.667 3.19317 9.47366 1.99984 8.00033 1.99984C6.52699 1.99984 5.33366 3.19317 5.33366 4.6665C5.33366 6.13984 6.52699 7.33317 8.00033 7.33317ZM12.0003 11.3332V9.33317H13.3337V11.3332H15.3337V12.6665H13.3337V14.6665H12.0003V12.6665H10.0003V11.3332H12.0003Z" fill="white"/>
</g>
<defs>
<clipPath id="clip0_3_926">
<rect width="16" height="16" fill="white"/>
</clipPath>
</defs>
</svg>
