<svg width="40" height="44" viewBox="0 0 40 44" fill="none" xmlns="http://www.w3.org/2000/svg">
<path d="M20 44C14.2083 42.7167 9.42667 39.7921 5.655 35.2264C1.88333 30.6607 -0.00166556 25.5919 1.10424e-06 20.02V6.6L20 0L40 6.6V20.02C40 25.5933 38.115 30.6629 34.345 35.2286C30.575 39.7943 25.7933 42.7181 20 44ZM20 39.38C24.0417 38.28 27.4167 36.1071 30.125 32.8614C32.8333 29.6157 34.4167 25.9952 34.875 22H20V4.675L5 9.625V21.01C5 21.2667 5.04167 21.5967 5.125 22H20V39.38Z" fill="#2463EC"/>
</svg>
