<svg width="44" height="44" viewBox="0 0 44 44" fill="none" xmlns="http://www.w3.org/2000/svg">
<path d="M35.1633 33.9108V28.2129C35.1633 27.9635 35.0688 27.7449 34.8798 27.5571C34.6924 27.3709 34.4732 27.2778 34.2222 27.2778C33.9713 27.2778 33.7513 27.3709 33.5622 27.5571C33.3732 27.7433 33.2803 27.9619 33.2835 28.2129V33.8452C33.2835 34.1124 33.3284 34.3626 33.418 34.5957C33.5093 34.8305 33.6616 35.0531 33.8751 35.2636L37.6493 39.0161C37.8318 39.1958 38.047 39.293 38.2947 39.3076C38.5407 39.3238 38.7705 39.2266 38.984 39.0161C39.1665 38.8234 39.2578 38.5992 39.2578 38.3433C39.2578 38.0875 39.1665 37.8689 38.984 37.6876L35.1633 33.9108ZM34.2222 44C31.4991 44 29.1891 43.0568 27.2922 41.1705C25.3937 39.2857 24.4444 36.9905 24.4444 34.2848C24.4444 31.5792 25.3937 29.2831 27.2922 27.3968C29.1907 25.5104 31.5007 24.568 34.2222 24.5697C36.9437 24.5713 39.2545 25.5137 41.1547 27.3968C43.0548 29.2799 44.0033 31.5759 44 34.2848C44 36.9889 43.0515 39.2841 41.1547 41.1705C39.2545 43.0568 36.9437 44 34.2222 44ZM9.77778 11.4882H29.3333C29.6804 11.4882 29.9705 11.3716 30.2036 11.1384C30.4382 10.9053 30.5555 10.6163 30.5555 10.2714C30.5555 9.92647 30.4382 9.63826 30.2036 9.40671C29.9689 9.17517 29.6788 9.0602 29.3333 9.06182H9.77778C9.43067 9.06182 9.14059 9.17841 8.90755 9.41157C8.67452 9.64473 8.55718 9.93376 8.55555 10.2786C8.55392 10.6235 8.67126 10.9118 8.90755 11.1433C9.14385 11.3748 9.43392 11.4898 9.77778 11.4882ZM3.95022 38.8607C2.86326 38.8607 1.93356 38.4761 1.16111 37.707C0.388666 36.9379 0.00162963 36.0158 0 34.9406V3.9225C0 2.84412 0.387037 1.92117 1.16111 1.15368C1.93518 0.386178 2.86407 0.00161919 3.94778 0H35.1633C36.2487 0 37.1775 0.384559 37.95 1.15368C38.7224 1.92279 39.1095 2.84573 39.1111 3.9225V16.0859C39.1111 16.6963 38.8838 17.1716 38.4291 17.5116C37.9744 17.8516 37.4481 17.9617 36.85 17.8419C36.4393 17.7334 36.0124 17.6597 35.5691 17.6209C35.1258 17.582 34.6769 17.5618 34.2222 17.5602C33.3976 17.5602 32.5958 17.6249 31.8169 17.7545C31.0396 17.884 30.2744 18.067 29.5215 18.3034C29.339 18.2629 29.1353 18.2378 28.9104 18.2281C28.6872 18.2184 28.4835 18.2135 28.2993 18.2135H9.77778C9.43067 18.2135 9.14059 18.3301 8.90755 18.5633C8.67452 18.7964 8.55718 19.0854 8.55555 19.4303C8.55392 19.7752 8.67126 20.0634 8.90755 20.295C9.14385 20.5265 9.43392 20.6431 9.77778 20.6447H24.6571C23.4218 21.4883 22.3365 22.4785 21.4011 23.6151C20.4657 24.7518 19.6957 26.0035 19.0911 27.3701H9.77778C9.43067 27.3701 9.14059 27.4866 8.90755 27.7198C8.67289 27.953 8.55555 28.242 8.55555 28.5869C8.55555 28.9318 8.67289 29.22 8.90755 29.4515C9.14222 29.6831 9.43229 29.7988 9.77778 29.7988H18.2356C18.0596 30.4838 17.9218 31.1744 17.8224 31.8706C17.7247 32.5669 17.6758 33.2777 17.6758 34.0031C17.6758 34.4079 17.6847 34.8345 17.7027 35.2831C17.7222 35.7316 17.7711 36.1906 17.8493 36.6602C17.9276 37.2237 17.8013 37.7313 17.4704 38.183C17.1396 38.6348 16.6923 38.8607 16.1284 38.8607H3.95022Z" fill="#2463EC"/>
</svg>
