<svg width="44" height="44" viewBox="0 0 44 44" fill="none" xmlns="http://www.w3.org/2000/svg">
<path d="M44 19.5556V14.6667H39.1111V9.77778C39.1072 8.48235 38.5909 7.24109 37.6749 6.32509C36.7589 5.40908 35.5176 4.89276 34.2222 4.88889H29.3333V0H24.4444V4.88889H19.5556V0H14.6667V4.88889H9.77778C8.48235 4.89276 7.24109 5.40908 6.32509 6.32509C5.40908 7.24109 4.89276 8.48235 4.88889 9.77778V14.6667H0V19.5556H4.88889V24.4444H0V29.3333H4.88889V34.2222C4.89276 35.5176 5.40908 36.7589 6.32509 37.6749C7.24109 38.5909 8.48235 39.1072 9.77778 39.1111H14.6667V44H19.5556V39.1111H24.4444V44H29.3333V39.1111H34.2222C35.5176 39.1072 36.7589 38.5909 37.6749 37.6749C38.5909 36.7589 39.1072 35.5176 39.1111 34.2222V29.3333H44V24.4444H39.1111V19.5556H44ZM34.2222 34.2222H9.77778V9.77778H34.2222V34.2222Z" fill="#2463EC"/>
</svg>
