<svg width="8" height="14" viewBox="0 0 8 14" fill="none" xmlns="http://www.w3.org/2000/svg">
<path fill-rule="evenodd" clip-rule="evenodd" d="M7.37616 7.37629C7.56363 7.18876 7.66895 6.93445 7.66895 6.66929C7.66895 6.40412 7.56363 6.14982 7.37616 5.96229L1.71916 0.305288C1.62691 0.209778 1.51657 0.133596 1.39456 0.0811869C1.27256 0.0287779 1.14134 0.00119157 1.00856 3.77564e-05C0.875781 -0.00111606 0.744102 0.0241859 0.621205 0.0744668C0.498309 0.124748 0.386656 0.199001 0.292764 0.292893C0.198871 0.386786 0.124618 0.498438 0.074337 0.621334C0.024056 0.744231 -0.0012455 0.87591 -9.15527e-05 1.00869C0.00106239 1.14147 0.0286484 1.27269 0.0810575 1.39469C0.133467 1.5167 0.209649 1.62704 0.305159 1.71929L5.25516 6.66929L0.305159 11.6193C0.123001 11.8079 0.0222063 12.0605 0.0244846 12.3227C0.026763 12.5849 0.131932 12.8357 0.31734 13.0211C0.502748 13.2065 0.753561 13.3117 1.01576 13.314C1.27795 13.3162 1.53056 13.2154 1.71916 13.0333L7.37616 7.37629Z" fill="white"/>
</svg>
