<svg width="38" height="38" viewBox="0 0 38 38" fill="none" xmlns="http://www.w3.org/2000/svg">
<path d="M38 18.9199C38 19.5167 37.7629 20.089 37.341 20.5109C36.919 20.9329 36.3467 21.1699 35.75 21.1699H21.5V35.4199C21.5 36.0167 21.2629 36.589 20.841 37.0109C20.419 37.4329 19.8467 37.6699 19.25 37.6699C18.6533 37.6699 18.081 37.4329 17.659 37.0109C17.2371 36.589 17 36.0167 17 35.4199V21.1699H2.75C2.15326 21.1699 1.58097 20.9329 1.15901 20.5109C0.737053 20.089 0.5 19.5167 0.5 18.9199C0.5 18.3232 0.737053 17.7509 1.15901 17.3289C1.58097 16.907 2.15326 16.6699 2.75 16.6699H17V2.41992C17 1.82318 17.2371 1.25089 17.659 0.828932C18.081 0.406975 18.6533 0.169922 19.25 0.169922C19.8467 0.169922 20.419 0.406975 20.841 0.828932C21.2629 1.25089 21.5 1.82318 21.5 2.41992V16.6699H35.75C36.3467 16.6699 36.919 16.907 37.341 17.3289C37.7629 17.7509 38 18.3232 38 18.9199Z" fill="white"/>
</svg>
