<svg width="212" height="50" viewBox="0 0 212 50" fill="none" xmlns="http://www.w3.org/2000/svg">
<g clip-path="url(#clip0_3_638)">
<path d="M185.522 16.8321C186.694 16.8321 187.658 16.2229 187.788 15.4359L188.945 2.35444C188.945 1.06146 187.43 0 185.526 0C183.623 0 182.11 1.06145 182.11 2.35467L183.266 15.4359C183.393 16.2227 184.358 16.8321 185.526 16.8321H185.522ZM178.452 20.918C179.04 19.9046 178.995 18.7657 178.376 18.2597L167.624 10.7173C166.506 10.0698 164.83 10.8491 163.878 12.4989C162.924 14.1467 163.093 15.987 164.208 16.6346L176.114 22.1781C176.858 22.454 177.873 21.923 178.456 20.9103L178.452 20.918ZM192.599 20.911C193.185 21.9237 194.195 22.4549 194.94 22.1788L206.846 16.6353C207.968 15.9879 208.127 14.1474 207.181 12.4997C206.226 10.8515 204.546 10.0705 203.431 10.718L192.678 18.2604C192.064 18.7657 192.018 19.9056 192.602 20.9187L192.599 20.911ZM185.522 33.1728C186.694 33.1728 187.658 33.7769 187.788 34.5645L188.945 47.6442C188.945 48.9411 187.43 50.0002 185.526 50.0002C183.623 50.0002 182.11 48.9411 182.11 47.6442L183.266 34.5645C183.393 33.7769 184.358 33.1728 185.526 33.1728H185.522ZM192.599 29.086C193.185 28.0705 194.195 27.544 194.94 27.8231L206.846 33.3628C207.968 34.0109 208.127 35.8531 207.181 37.5022C206.226 39.1451 204.546 39.9281 203.431 39.2816L192.678 31.7461C192.064 31.2369 192.018 30.0963 192.602 29.0839H192.598M178.452 29.0846C179.04 30.0963 178.995 31.2369 178.376 31.7471L167.624 39.2823C166.506 39.9288 164.83 39.1457 163.878 37.5029C162.924 35.8538 163.093 34.0116 164.208 33.3635L176.114 27.8238C176.858 27.5447 177.873 28.0712 178.456 29.0869H178.452" fill="#FDBB30"/>
<path d="M117.7 31.7225C117.7 32.1239 117.664 32.5379 117.554 32.9015C117.098 34.4118 115.534 35.6889 113.578 35.6889C111.947 35.6889 110.651 34.7624 110.651 32.8054C110.651 29.8103 113.948 28.9832 117.701 29.0039L117.7 31.7222V31.7225ZM123.586 26.5029C123.586 21.5642 121.476 17.2185 114.345 17.2185C110.685 17.2185 107.78 18.2465 106.194 19.1628L107.356 23.1333C108.805 22.2184 111.114 21.461 113.3 21.461C116.917 21.451 117.509 23.5092 117.509 24.8265V25.1383C109.625 25.1266 104.641 27.8566 104.641 33.4178C104.641 36.816 107.18 39.9987 111.592 39.9987C114.303 39.9987 116.574 38.9165 117.933 37.1812H118.067C118.067 37.1812 118.967 40.9486 123.931 39.5072C123.672 37.9404 123.587 36.268 123.587 34.2568L123.586 26.5029M0.743164 10.4926C0.743164 10.4926 5.89524 31.6037 6.71794 35.0298C7.67764 39.029 9.40729 40.5012 14.3918 39.5072L17.6086 26.4191C18.4243 23.1666 18.9702 20.8477 19.4958 17.5424H19.5873C19.9563 20.8827 20.4798 23.1767 21.151 26.4299C21.151 26.4299 22.4598 32.372 23.1313 35.4919C23.8035 38.611 25.6743 40.578 30.5573 39.5072L38.2227 10.4917H32.0356L29.4174 23.0371C28.7135 26.6873 28.0754 29.5428 27.583 32.8815H27.4955C27.048 29.5722 26.4783 26.8332 25.7635 23.2759L23.0398 10.4917H16.5922L13.6772 22.9535C12.8521 26.7415 12.0784 29.7989 11.5883 33.0264H11.4992C10.996 29.9872 10.3261 26.143 9.60124 22.4781C9.60124 22.4781 7.87065 13.5643 7.26197 10.4917L0.743164 10.4926ZM49.9263 31.7225C49.9263 32.1239 49.8906 32.5379 49.779 32.9015C49.3239 34.4118 47.7593 35.6889 45.803 35.6889C44.1716 35.6889 42.8779 34.7624 42.8779 32.8054C42.8779 29.8103 46.1736 28.9832 49.927 29.0039L49.9263 31.7222V31.7225ZM55.8117 26.5029C55.8117 21.5642 53.7014 17.2185 46.5723 17.2185C42.9111 17.2185 40.0037 18.2465 38.419 19.1628L39.579 23.1333C41.0279 22.2184 43.3375 21.461 45.5239 21.461C49.1433 21.451 49.7356 23.5092 49.7356 24.8265V25.1383C41.8482 25.1266 36.8667 27.8566 36.8667 33.4178C36.8667 36.816 39.4037 39.9987 43.8129 39.9987C46.5279 39.9987 48.7974 38.9165 50.1581 37.1812H50.2906C50.2906 37.1812 51.1924 40.9486 56.1557 39.5072C55.8962 37.9404 55.8117 36.268 55.8117 34.2568V26.5029ZM65.6341 33.348V10.4926H59.741V39.5081H65.6341V33.348ZM142.726 10.4926V31.8968C142.726 34.8492 143.283 36.9154 144.47 38.1799C145.51 39.2854 147.219 40.001 149.268 40.001C151.011 40.001 152.724 39.6684 153.533 39.3685L153.457 34.7647C152.855 34.9117 152.164 35.0308 151.219 35.0308C149.21 35.0308 148.539 33.7443 148.539 31.0951V22.9055H153.671V17.3531H148.539V10.4926H142.726ZM127.516 17.7107V39.5081H133.595V28.3474C133.595 27.7441 133.631 27.2185 133.726 26.7377C134.176 24.3987 135.964 22.9055 138.532 22.9055C139.236 22.9055 139.74 22.982 140.286 23.0595V17.3531C139.828 17.2619 139.517 17.2192 138.947 17.2192C136.678 17.2192 134.097 18.683 133.014 21.823H132.85V17.7107H127.516ZM69.7605 17.7107V39.5081H75.6832V26.726C75.6832 26.1262 75.7537 25.4919 75.9614 24.942C76.4522 23.6551 77.6499 22.1479 79.5612 22.1479C81.9523 22.1479 83.0688 24.1683 83.0688 27.0843V39.5065H88.9869V26.5687C88.9869 25.9965 89.065 25.3066 89.2343 24.802C89.7202 23.3372 91.0103 22.1462 92.7874 22.1462C95.2102 22.1462 96.3732 24.1312 96.3732 27.5635V39.5058H102.295V26.667C102.295 19.8971 98.8574 17.2171 94.9761 17.2171C93.2588 17.2171 91.9019 17.6472 90.6747 18.3992C89.6443 19.034 88.7201 19.9335 87.9137 21.1158H87.8262C86.8903 18.7668 84.6883 17.2182 81.8188 17.2182C78.1324 17.2182 76.4755 19.087 75.4706 20.6717H75.3823V17.71H69.7605" fill="#1A75CF"/>
<path d="M209.832 38.4482H209.921C210.04 38.4482 210.116 38.3992 210.116 38.3264C210.116 38.2435 210.045 38.1985 209.934 38.1985C209.897 38.1985 209.858 38.2062 209.832 38.2062V38.4503V38.4479L209.832 38.4482ZM209.818 39.0359H209.503V38.0101C209.575 37.9961 209.741 37.9711 209.955 37.9711C210.186 37.9711 210.29 38.0038 210.366 38.0552C210.431 38.1 210.477 38.1765 210.477 38.2799C210.477 38.3852 210.38 38.4743 210.238 38.5133V38.5264C210.354 38.5574 210.418 38.6419 210.451 38.7901C210.483 38.9381 210.502 38.9985 210.522 39.0366H210.165C210.134 38.9985 210.116 38.9077 210.095 38.8172C210.075 38.7133 210.026 38.6613 209.921 38.6613H209.817L209.818 39.0359ZM209.948 37.6759C209.496 37.6759 209.155 38.0442 209.155 38.5138C209.155 38.9712 209.497 39.3444 209.961 39.3444C210.426 39.3521 210.768 38.9714 210.768 38.5063C210.768 38.0433 210.426 37.6759 209.955 37.6759H209.948ZM209.969 37.3975C210.599 37.3975 211.101 37.8936 211.101 38.5061C211.101 39.1257 210.599 39.6226 209.96 39.6226C209.321 39.6226 208.812 39.125 208.812 38.5063C208.812 37.8936 209.322 37.3977 209.96 37.3977H209.967" fill="#FDBB30"/>
</g>
<defs>
<clipPath id="clip0_3_638">
<rect width="211" height="50.0002" fill="white" transform="translate(0.703125)"/>
</clipPath>
</defs>
</svg>
