<svg width="177" height="50" viewBox="0 0 177 50" fill="none" xmlns="http://www.w3.org/2000/svg">
<g clip-path="url(#clip0_3_651)">
<path d="M116.064 15.8503C119.906 14.9235 124.578 15.7859 127.086 19.0652C128.153 20.3511 128.607 21.9904 129.004 23.5817C127.316 23.6082 125.623 23.6082 123.935 23.6082C123.201 19.9755 118.212 18.5233 115.566 21.0098C113.701 23.0405 113.364 26.0568 113.75 28.6881C114.162 30.7074 114.977 33.0541 117.061 33.8905C120.029 34.9988 123.538 33.0219 123.935 29.8235C125.655 29.8235 127.38 29.8178 129.105 29.8558C128.747 32.9315 127.263 36.1349 124.251 37.3943C119.579 39.4249 112.887 38.8193 110.18 33.9816C110.61 32.0097 111.092 29.9575 110.647 27.9427C110.395 26.4538 109.618 25.1407 109.136 23.7265C109.126 19.8794 112.426 16.6109 116.064 15.8503Z" fill="#2DC100"/>
<path d="M64.6123 16.4123C66.4603 16.3965 68.3089 16.3965 70.1574 16.3908C71.2556 21.2393 71.8663 26.2009 73.206 30.9968C74.5507 27.0208 75.1722 22.847 76.3146 18.8128C76.6515 17.5914 77.6112 16.3004 79.0147 16.3914C80.5365 16.2094 81.5708 17.6186 81.8818 18.9468C82.9749 22.9121 83.6925 26.9785 84.9089 30.9172C86.3073 26.1642 87.0742 21.262 88.0978 16.418C89.9021 16.3965 91.7033 16.3965 93.5095 16.4129C91.9979 22.4942 90.289 28.5217 88.7401 34.5922C88.3595 36.1038 87.6957 37.8285 86.0772 38.3861C84.245 38.804 82.5836 37.3468 82.1391 35.6486C80.9986 32.0046 80.173 28.265 79.0476 24.6108C78.1423 28.2435 77.2155 31.8655 76.2185 35.4716C75.8429 37.0844 74.4287 38.7395 72.613 38.419C70.8605 38.2205 69.9975 36.4794 69.6125 34.9576C67.9548 28.774 66.2674 22.596 64.6123 16.4123Z" fill="#2DC100"/>
<path d="M130.226 16.4079C131.882 16.4022 133.543 16.4022 135.199 16.3965C135.187 18.2185 135.171 20.0399 135.316 21.8512C137.98 22.0384 140.9 21.2829 143.353 22.6333C145.47 23.7687 146.692 26.1692 146.676 28.5375C146.709 31.8326 146.665 35.1277 146.681 38.4285C145.068 38.4392 143.461 38.4443 141.853 38.4493C141.821 35.2832 141.891 32.1165 141.838 28.9503C141.902 27.8787 141.141 26.7585 140.037 26.6352C138.43 26.4316 136.806 26.5391 135.194 26.5707C135.204 30.5245 135.199 34.4841 135.199 38.4443C133.543 38.4392 131.888 38.4392 130.233 38.4392C130.226 31.0942 130.237 23.7529 130.226 16.4079ZM168.322 16.4015H173.031C173.026 18.0579 173.026 19.7074 173.02 21.3631C174.279 21.3631 175.538 21.3631 176.803 21.3688C176.798 22.5903 176.798 23.8174 176.798 25.0388H172.976C173.074 27.8364 172.768 30.6649 173.138 33.4511C173.985 34.4961 175.479 34.3463 176.674 34.6832C176.658 35.9319 176.653 37.1805 176.653 38.4342C173.948 38.4936 170.25 38.847 168.863 35.9053C167.667 32.4389 168.562 28.6456 168.295 25.0502C167.084 25.0388 165.873 25.0338 164.662 25.018C164.662 23.8067 164.657 22.596 164.657 21.391C165.879 21.3752 167.1 21.3644 168.327 21.3587C168.322 19.708 168.322 18.0579 168.322 16.4015Z" fill="#2DC100"/>
<path d="M108.998 31.0561C109.084 27.8894 108.381 24.3155 105.579 22.4188C101.914 20.0885 96.0474 20.404 93.5774 24.342C91.5138 27.8141 91.4025 32.7327 94.1982 35.8565C96.8769 38.8835 101.625 39.0448 105.134 37.5287C107.069 36.741 108.135 34.8601 108.864 33.0172C107.321 32.9671 105.777 32.9599 104.234 32.9957C102.868 34.6186 100.456 35.273 98.544 34.2545C97.3276 33.6653 97.0817 32.2402 96.7005 31.0934C100.799 31.0289 104.898 31.0877 108.998 31.0561ZM96.5766 27.7503C97.1291 26.0623 98.5219 24.5886 100.456 24.8939C102.364 24.5835 103.66 26.1211 104.196 27.7553C101.656 27.8299 99.1168 27.8249 96.5766 27.7503Z" fill="#2DC100"/>
<path d="M163.847 26.8825C163.751 23.9515 161.163 21.637 158.339 21.3367C155.542 21.0478 152.376 21.0478 150.066 22.902C148.84 23.7909 148.448 25.3184 148.132 26.7168C149.573 26.7548 151.015 26.7598 152.461 26.7491C153.281 24.2948 156.491 23.9838 158.419 25.2488C159.148 25.8595 159.084 26.8881 159.293 27.7397C156.271 27.858 152.949 27.2738 150.265 29.0149C147.709 30.5158 147.243 34.1965 148.727 36.597C149.766 38.1561 151.797 38.4456 153.527 38.4406C156.978 38.4564 160.429 38.4349 163.879 38.4406C163.847 34.5822 163.944 30.7288 163.847 26.8825ZM152.757 33.9386C152.532 33.0921 153.013 32.3201 153.292 31.5653C155.21 31.1309 157.182 31.0721 159.148 31.1151C159.159 32.4598 159.159 33.8001 159.154 35.1448C157.021 35.0102 154.406 35.686 152.757 33.9386Z" fill="#2DC100"/>
<path d="M34.1751 3.12998C27.9162 -0.394604 20.1147 -0.926295 13.3791 1.50709C8.95483 3.1009 4.9466 6.06219 2.47149 10.0963C0.227763 13.7328 -0.614344 18.2696 0.470533 22.4308C1.55604 27.0504 4.75694 30.9208 8.65643 33.5078C7.92306 35.6403 7.19981 37.7721 6.51828 39.9197C8.98328 38.6395 11.4192 37.3042 13.8747 36.0013C16.836 36.9496 19.9477 37.4041 23.0563 37.3042C22.2465 34.929 22.0543 32.3711 22.4229 29.8928C23.0121 26.4548 24.8721 23.3077 27.4426 20.9742C31.7708 16.9211 37.9077 15.2084 43.7468 15.6212C42.6556 10.2689 38.8939 5.74165 34.1751 3.12998ZM17.3968 12.8395C16.9618 14.9366 14.1504 15.9481 12.5085 14.5427C10.6068 13.2011 11.1385 9.86874 13.3759 9.19986C15.5652 8.35459 18.0562 10.5793 17.3968 12.8395ZM32.5996 12.2313C32.6186 14.6451 29.4044 16.1498 27.5956 14.5104C25.7198 13.1689 26.2515 9.90035 28.4535 9.22199C30.4229 8.44753 32.7532 10.109 32.5996 12.2313Z" fill="#2DC100"/>
<path d="M59.0779 26.8779C57.5505 23.4172 54.6663 20.6766 51.3207 18.9803C45.4139 15.9837 38.0638 16.0064 32.1766 19.0505C28.0818 21.1539 24.6659 24.9187 23.693 29.4997C22.8926 32.8707 23.6127 36.5009 25.3993 39.4432C28.0628 43.8579 32.8714 46.6751 37.8748 47.581C41.4986 48.3175 45.2445 47.8857 48.7627 46.8609C50.8693 47.6841 52.7577 49.0092 54.8035 49.9891C54.2805 48.22 53.717 46.463 53.1136 44.7196C55.4022 43.0841 57.4898 41.0541 58.7447 38.4993C60.6117 34.9418 60.7236 30.5366 59.0779 26.8779ZM38.519 28.1999C38.0006 29.8354 35.6152 30.3286 34.469 29.0799C33.2014 27.9306 33.6939 25.52 35.3554 25.0079C37.2034 24.2302 39.3289 26.3557 38.519 28.1999ZM50.5532 28.4269C49.9222 29.8999 47.7164 30.2388 46.6284 29.0995C46.1005 28.6254 45.9722 27.9053 45.761 27.2687C46.043 26.1225 46.8079 24.9282 48.1103 24.877C49.9127 24.6298 51.4939 26.8166 50.5532 28.4269Z" fill="#2DC100"/>
</g>
<defs>
<clipPath id="clip0_3_651">
<rect width="176.803" height="50" fill="white"/>
</clipPath>
</defs>
</svg>
